/* XPM */
static char *a5ad40f721ba40179acbad5fec92c6b9WmOCFYtPDmwjdE9n[] = {
/* columns rows colors chars-per-pixel */
"64 64 256 2 ",
"   c #180A16",
".  c #19141B",
"X  c #11090B",
"o  c #27161B",
"O  c #38191A",
"+  c #2C080A",
"@  c #39251C",
"#  c #332B1D",
"$  c #07152A",
"%  c #141C2D",
"&  c #191A26",
"*  c #0A1935",
"=  c #121D34",
"-  c #151B37",
";  c #000C26",
":  c #271B25",
">  c #2C1B2D",
",  c #16212C",
"<  c #0D2037",
"1  c #172337",
"2  c #0F212F",
"3  c #2A262A",
"4  c #3B2C23",
"5  c #362827",
"6  c #3D3224",
"7  c #3B332A",
"8  c #292A37",
"9  c #352B37",
"0  c #393238",
"q  c #2C3137",
"w  c #43181E",
"e  c #4B0A11",
"r  c #513A1B",
"t  c #45341C",
"y  c #481C22",
"u  c #5C1D2E",
"i  c #462826",
"p  c #55262D",
"a  c #433325",
"s  c #44342B",
"d  c #4B3C2B",
"f  c #473929",
"g  c #473A37",
"h  c #523B36",
"j  c #4E3330",
"k  c #712E34",
"l  c #564629",
"z  c #4B4539",
"x  c #53443C",
"c  c #534B3D",
"v  c #574736",
"b  c #5B5336",
"n  c #4E462C",
"m  c #655838",
"M  c #614B2E",
"N  c #66633E",
"B  c #7A633C",
"V  c #192947",
"C  c #172D55",
"Z  c #1B3455",
"A  c #0E2C54",
"S  c #272C46",
"D  c #273348",
"F  c #383948",
"G  c #363B53",
"H  c #293357",
"J  c #283A64",
"K  c #112150",
"L  c #463C45",
"P  c #593141",
"I  c #5E3C5B",
"U  c #394756",
"Y  c #364854",
"T  c #364E6F",
"R  c #4A4446",
"E  c #544441",
"W  c #554B42",
"Q  c #584B46",
"!  c #5C5345",
"~  c #5B5549",
"^  c #464958",
"/  c #564B57",
"(  c #565659",
")  c #4B515C",
"_  c #66584A",
"`  c #645B54",
"'  c #665955",
"]  c #6D4F4D",
"[  c #5A635A",
"{  c #5D6347",
"}  c #676445",
"|  c #776443",
" . c #68655A",
".. c #756458",
"X. c #495666",
"o. c #5A5C65",
"O. c #5C5D6B",
"+. c #555765",
"@. c #455978",
"#. c #5A5C75",
"$. c #4A4A6E",
"%. c #665967",
"&. c #6A5A6F",
"*. c #4B646C",
"=. c #5C646A",
"-. c #596576",
";. c #526C79",
":. c #646668",
">. c #736766",
",. c #636473",
"<. c #656975",
"1. c #6A6B76",
"2. c #64657A",
"3. c #656A7B",
"4. c #6B6C7C",
"5. c #6B6578",
"6. c #756A78",
"7. c #6D717D",
"8. c #667278",
"9. c #75737A",
"0. c #737367",
"q. c #85343A",
"w. c #8B3D43",
"e. c #8F4A4E",
"r. c #826D43",
"t. c #897551",
"y. c #877174",
"u. c #A55960",
"i. c #816C3F",
"p. c #7D837C",
"a. c #87817B",
"s. c #958B75",
"d. c #93886B",
"f. c #AEA177",
"g. c #A19373",
"h. c #15538D",
"j. c #26598B",
"k. c #285796",
"l. c #34548E",
"z. c #2A689B",
"x. c #2E6491",
"c. c #1957A4",
"v. c #2956A8",
"b. c #1D75AD",
"n. c #336BAC",
"m. c #166290",
"M. c #495788",
"N. c #546891",
"B. c #6C6C82",
"V. c #676784",
"C. c #756D87",
"Z. c #6D7384",
"A. c #6C7487",
"S. c #727385",
"D. c #73748B",
"F. c #7C7A8B",
"G. c #797887",
"H. c #767693",
"J. c #6D6E9E",
"K. c #4D73AF",
"L. c #455EA3",
"P. c #5B7CC1",
"I. c #847988",
"U. c #857A93",
"Y. c #3E81B6",
"T. c #4B8ABA",
"R. c #4D90CC",
"E. c #6AA8D8",
"W. c #52A7E9",
"Q. c #6398D7",
"!. c #378CC2",
"~. c #8A8488",
"^. c #918B89",
"/. c #888595",
"(. c #938893",
"). c #979797",
"_. c #95958E",
"`. c #A49D88",
"'. c #A39997",
"]. c #A8A388",
"[. c #B7A992",
"{. c #B5A888",
"}. c #989AA6",
"|. c #8C8FA0",
" X c #9EA0AB",
".X c #A8AAB5",
"XX c #AEB3B7",
"oX c #B4BDBC",
"OX c #BCBDBB",
"+X c #B7B8B7",
"@X c #B2B0AE",
"#X c #A2A193",
"$X c #C7B89A",
"%X c #C1BDB6",
"&X c #BAC3BC",
"*X c #C4C4BC",
"=X c #CBC6BA",
"-X c #D7CEBE",
";X c #E6ECBA",
":X c #BBBEC3",
">X c #B7B8C7",
",X c #AEAEC0",
"<X c #8AACE2",
"1X c #C4BEC4",
"2X c #D9B9C3",
"3X c #E2BECA",
"4X c #BDC2C5",
"5X c #BEC1C9",
"6X c #B5CCC6",
"7X c #BCD4CE",
"8X c #A5D9FF",
"9X c #C3C4C4",
"0X c #CBC4C2",
"qX c #C1C4CA",
"wX c #C5C9CD",
"eX c #C9CAC7",
"rX c #D3CDC3",
"tX c #D6CBC7",
"yX c #CBD3CD",
"uX c #D8D4CA",
"iX c #C7CAD2",
"pX c #CACDD4",
"aX c #CACDD8",
"sX c #CDD1D4",
"dX c #CED2D9",
"fX c #C9DBD4",
"gX c #D4D5D2",
"hX c #DBDAD4",
"jX c #D2D5DB",
"kX c #D5DADC",
"lX c #DBDDDC",
"zX c #D9D4D3",
"xX c #D7CBD3",
"cX c #E3DCC9",
"vX c #E4DBD7",
"bX c #EAD4DD",
"nX c #DDE0DB",
"mX c #C2E0D6",
"MX c #E8E6C9",
"NX c #E5E1D4",
"BX c #EAE5D5",
"VX c #E3E2DC",
"CX c #EBE6DB",
"ZX c #ECEADD",
"AX c #EEEBD4",
"SX c #F3EBD7",
"DX c #F4F1D4",
"FX c #D7D8E3",
"GX c #E4DDE3",
"HX c #F0DCE8",
"JX c #DBE4E5",
"KX c #E4E3E3",
"LX c #ECE9E3",
"PX c #EAE7E8",
"IX c #F2EBE8",
"UX c #F5EFE9",
/* pixels */
"U Y U ) Y d d r M r.i.d.$XcX-XcXvXVXCXSXCXAXAXDX;X;XDX;X;X;X;X;XMXhXnXZXUXZXZXUXDXDXDXDXSXUXUXUXHXUX[.| _  .6.J.K.L.x.x.k.k.v.v.",
"Y Y F Y 0 g v l M r.i.i.$X;X-XbXhXcXvXCXBXBXSXDXMXMXDX;XMX;X;X;XcXNXZXLXZXVXZXDXDXDXDXAXDXUXUXUXHXUX[.| m  .4.V.l.l.k.k.k.z.v.v.",
"X.Y Y Y L z h l M i.i.d.$X3X-XbXuXNXMXnXvXBXSXSXSXBXDXMXMXNXMXMXcXNXLXLXLXLXUXDXAXDXAXAXSXSXIXHXZXUX].} }  .3.M.l.l.h.k.h.h.c.v.",
"*.Y X.W R z d r M i.i.i.$XcX-XBXNXnXMXMXMXBXBXSXcXBXBXSXNXhXhXhXcXNXZXVXnXLXIXZXAXAXAXDXIXIXIXPXVXZX].N }  .3.;.M.k.k.K.Y.h.h.c.",
"Y Y ^ ^ R z h l M i.B t.$X-X-XBXMXcXcXcXNXNXCXZXvXIXIXUXUXPXHXKXNXCXCXNXCXPXLXZXAXAXAXDXLXIXIXPXKXZXs.{ { p.V.l.T x.T.E.Q.Y.c.c.",
"*.*.) Y Y g v M l r.B r.$X-X2XcXcX-XuXMXBXZXLXCXIXIXGXGXHXPXHXGXCXcXhXvXPXIXIXUXAXZXDXZXIXIXPXPXLXZXf.N { { ;.T h.T.E.R.R.Y.n.c.",
"*.*.*.) z g n r l i.B | $X-XtXvXuX-X-XcXNXVXnXhXPX*X'._. X@X'.'.#X^.^.@X1XeXrXzXNXAXDXSXZXLXPXPXJXUX].{ { [ ;.@.k.n.T.n.z.b.n.v.",
"Z Y Y ) ^ c h f r i.B r.[.-X2XcXcXuXcXhXNXhXuXeX0X^.R 5 L Q E 4 6 o o Q 9.y.~.'.NXCXZXZXCXKXKXKXVXDXf.{ { [ Y.;.l.h.z.R.T.n.v.R.",
"Y U U X./ 0 h l r i.B | [.cX3XtXzXcXuXzXzXnXuXp.p.{ . { s.t.d...# X # z (.I.^.y.tXSXZXBXZXnXPXKXbXHXs.m } >.V.N.K.K.E.8X8XT.l.k.",
"T X.) o./ g h r r i.B | $X%XtXxXuXvXxXhXgXnXgXa.s.{ X b {.f.{.g.6 + : z I.I.I.'.tXUXCXCXZXnXPXKXSXSXs.M _ %.#.M.K.v.K.E.Q.l.l.v.",
"T *.X.-.) 7 x d r B B r.$XcXtXxXzXzXgXgXzXnXyXp.[ { t d.$Xf.f.f.l O o R (.I.I.^.eXIXCXVXLXnXPXGXHXSXs.M _ ' #.l.L.l.n.T.T.l.l.v.",
"U ;.-.-./ g h r r B B B {.tXtXxXtXzXgXhXgXlXsXp._.{ X t d.g.g.t.n X X g (.I.I.I.eXLXCXVXLXnXKXKXbXHXg.m ..:.M.M.L.l.v.K.N.l.L.P.",
"T ;.-.,./ g g d r r.B | [.-X2XxXuXuXyXhXsXkXuXy.=.0.} } y.t.t.t.@ X   g U.I.U.U.9XPXVXnXLXnXPXKXbXbXg.M  .:.M.M.k.k.m.x.x.x.T.Q.",
"T 8.-.=.^ g h j r | B | [.2XtXtXrXuXrXgXyXhXuXT.T.} 3 o j ] ] P d d ' &.I.I.I.U.1XPXvXVXJXnXPXFXBXSXg.m { [ @.M.k.k.j.m.T m.x.L.",
"Y T X.) R g h i r | B | [.tX0XtXrXuXrXgXsXlXaXD.,.G.I.C.y.I.y.y...y.^.y.U.I.I.I.1XPXlXVXVXnXJXKXvXBXy.M { ( @.l.k.v.b.m.j.j.j.h.",
"A Y H G G g E r i r.B | {.tX0XtX-X-XrXuXyXkXaXF.3.4.9.C.I.y.&.I.y.y.I.>.(.U.U.I.1XPXlXlXVXnXKXJXVXCXd.b ~ =.*.x.h.c.m.m.T m.m.j.",
"A A A Z H L g x l | m | [.-X0XgX=XuXuXgXuXhXeX6.1.7.8.-.8.8.1.:.6.6.1.6.y.I.T.9.qXPXJXhXnXhXnXuXvXAXs.W [ :.;.T m.Y.!.b.b.b.J m.",
"A A A Z H U L n d | m | #X-X*XgXyXyX=X=X0XvXxX(.=.,.8.8.Z.S.D.Z.4.4.9.G./.^.s./.qXKXlXKXLXnXLXLXMXAXs.c { =.*.T z.!.W.W.W.W.b.b.",
"A A A Z D F L d n B m B [.rX*XyX&X&X7XfXeXxXxXU.9.S.A.V.8.Z.A.B.F.S.4.9.9.3.1.9.qXFXjXVXnXgXhXNXcXAXs.z ( =.*.@.m.Y.W.W.W.W.b.h.",
"Z A J A D F g g l | m N ].-X9XyXmXmXmXnXjXGXxXI.G.F.D.V.3.B.C.C./.F.G.I././.(.).qXPXJXnXVXnXVXVXcXMXs.c { =.;.M.T z.R.!.R.W.b.c.",
"Z Z Z S S 9 g h n B m N `.-X*XsXmX7X6XiXpXbXaXI.&.&.C.C.C.H.U.U.B.5.4.G.S.9.6.G.XXKXFXzXlXKXPXhXcXMXd.c `  .=.;.T L.R.n.c.v.v.v.",
"Z Z D D S 0 0 d d | M m ].=X*XyX7X7XiXzXbXHX3XI.&.I.I.C.H.C.C.V.G.I.U././.I.G.9.1XPXPXFXGXKXPXhXNXMXd.l _ ( ( $.N.<X8X<XP.v.L.P.",
"V D D S q 9 g d d | m m `.=X0XpXfXnXxXxX2X3X3XI.&.&.&.&.&.&.C.G.5.B.,.+.+.&.I.9.eXKXlXPXPXFXPXIXCXvXy.v _ ` R U H @.<X<XJ.K.K.L.",
"1 D S D 0 0 g d r | m m ].=X%XyXyX*X'.y.k u.I.k P p L > L 2.}.>X>X,XF.L 9 L ( %.(.(.(.1XpXXX5XFXIXcXy.b ....~ R X.U N.@.J $.$.J ",
"q q q q 0 0 j d l m N b `.-X1X=Xy.s.] w q.w.q.q.u + y L 9.9./.}.|.|.$.:   F 3 / : L 6.&.5.I.}.iXOXLXy.h _ _ ..' :.o.*.*.=.=.:.[ ",
"q q q 0 0 g f d l b m b `.=X0X2X..e.u e q.w.q.q.k + X 5 0.9.8.<.2.V.L F +.I / / > > s L ..T.G./.I.pXy.v ' _ ..'  .[ [ [ =. .0. .",
"3 q 7 7 0 s d d l M N l `.=X0X=Xy.e.k e w.w.u.u.k + + 5 9.8.8.8.D.B.8 8 5.R 6.] &.g o   P I.D.F.,.>XI.! _ ] | ' ( [ [ [ { { { b ",
"7 7 5 7 7 s d r b m m b `.-X0X1X..M k + q.q.w.e.k + + j 9.8.8.A.D.2.&   / P &./ o     . %./.F.D.,.1XI.E ! M ] _  .0.:. .[ [  .{ ",
"6 6 4 6 s s d d b M N n f.=X0X9X9.>...y k k w.w.k + + P C.B.V.-.#.5.F 9 / y./ I o     . +.U.D.S.,.OXy.c _ _ .._ P / / $.[ :.1.>.",
"6 # 6 t a s d d l b b n `.=X0X9X:./ ( O e + e e e + > P 5.V.H.V.V.I.$.S 9 ' O   I i o   L G.H.G.=.&Xa.z _ .._ s 3 S F > D G $.+.",
"t t 6 t a f d l M M m n `.=XeX4X8.*.=.~ P u u u u k I I B.V.J.H.V.D.L & :   X X   > i S #.U.I.7.=.&Xp.n _ ] ] o 0 L I K K H $.$.",
"# 6 6 6 s f d d b b m n `.*X9X6X*.*.;.9.6.y.I.u.y.y.I.&.U.H.H.$.V.U.&.$.&.g %.Q P %.I.+.&.H.y.T.[ +X0.6 _ ..' 9 8 H K K - K $.M.",
"3 # 3 5 5 4 f d f } ~ n `.=X&XoX,.*.O.:.O.%.%.%.6.5.5.5.V.B.V.V.V.V.J.C.C.C.I.I.I.I.F.F.H.D.H.D.:.+X..! ! ' ' 8 G G H K C M.M.$.",
", , 3 3 5 @ a a d } W n _.&X7X&X1.,.,.1.Z.4.4.B.#.O.2.B.D.D.S.D.V.V.C.V.V.C.5.5.4.Z.Z.D.D.H.H.H.:.OX0.! W ` ' F G T T J J l.J J ",
", 3 3 5 5 4 s f n ` ~ 7 _.&X*X&X=.o.o.O.,.,.,.1.B.B.S.D.B.B.2.#.V.V.V.C.B.4.4.9.<.2.4.7.D.H.J.D.` %X0.! W ` >./ $.$.T l.M.T J H ",
"3 q q 3 7 7 d d d _ b 7 g.&X4X4X1.,.,.<.1.1.1.Z.1.5.2.5.7.B.B.B.V.V.V.C.Z.S.D.D.4.4.Z.Z.B.D.D.D.o.%X>.! Q ~ >.( ) T T @.T J S - ",
"3 3 3 3 5 6 a f d m c g ].&X&XoX:.=.+.=.,.=.,.<.B.4.4.4.B.4.4.,.-.V.V.A.Z.S.D.G.G.A.G.A.D.D.D.D.o.OX>.! Q ' >.F q 1 V Z H V = = ",
"3 3 3 # 5 4 s f f _ c z ).&X9X&X1.<.:.,.1.,.5.1.4.4.Z.G.G.B.2.#.V.A.A.A.A.A.A.S.7.A.A.G.H.D.D.F.' +X..Q _ ' ( 7 2 $ * < * * = , ",
"3 5 7 q 5 6 f d n ! z z #X&X&X5X9.,.o.o.o.+.) +.O.O.O.,.V.B.Z.C.;.A.Z.A.Z.7.A.T.Z.Z.S.S.G.H.D.F.:.+X .W ! ' ` 3 $ 2 < < % 2 , , ",
"3 3 5 5 4 6 s f n b z 7 _.OX9X5XsXqX,X.X X}.}.|.}./.1.+.^ ^ ^ ) +.*.-.-.<.1.0.0.9.Z.Z.S.Z.Z.S.D.o.@X .W Q _ ~ q . , 2 2 2 2 , . ",
"5 > > g i @ f 6 n b z z _.&XOXqX4XiXiXaXqXqXFX5X/. X+.& 8 F ^ ^ U , F Y Y F S.|.A.H.=.=.-.-.3.=.9.).' ` ! ~ c . 2 2 2 2 2 , , . ",
"5 g 5 s s 4 f t 6 ~ z z ^.&XOXqX4X5X:XqX:X:XiX X+.o.8 ^ +.S $ 3 R U 1.=.+.+. X5X5XFX>X,X,X}.}.).@XOX' W z ~ W : . & 2 2 , & & & ",
"y / j 5 d a f f 6 ~ z c _.OXoX:XwXwX>XqX5XwX>X}.+.1.8 U ) +.q 9 3 ^ /.~.G.,.G.2.,XFXFXJXJXdXJXJXkXgX .x z _ Q : , , 2 2 % , , & ",
"> ] p O s f 6 f 6 { z R _.&X:X:XwXwXoXqXiXdXaX}.O.S.8 R F o.^ F . & F R 5.6.C.#..XaXFXFXjXiXkXFXFXyX` c c ' W . , $ , 2 % & , 3 ",
"O ] t o i a t 6 6 { z c ).%X:X:X4X9X>X:X:XiXpX X+.o.q 9.+.) q G : X   > I.I.I.&.,XFXFXaXFXiXfXfXzX0X .W Q _ W . % - * - = % > > ",
"O h O O 4 @ 6 a 6 ~ c R (.:X:X:X:XwX4X4X>XqXpX X=.<.F ) 8 F G R o   > 9 I.&.&.&.,XFXaXaXdXFXJXkXkXeX( W E ' E & % - - - - - > - ",
"O p O i @ @ f a 7 ~ c z ^.:X:X1X:XpX9X9X5XiXsX}.) 1.F   X & F : + + o o %.&.U.U.>XFXFXFXdXaXfXyXnXeX~ W W _ R & & - - * - - - > ",
"O O O i @ # f n f ~ z R ^.OX:XqXoX9X4X5XqXdXdX).+.o.) ^ 8 % % X : L L 9 y.I.I.I .XFXFXFXFXfXJXfXnX*X~ W _ ' R   > - - - - - > 1 ",
"y P o h 4 @ s 6 d W Q L ^.9X+X4X&XeX:X4XqXsXdX}.2.5.1.V.B.B.V.2.&.,.&.,.2.5.1.,.XXFXjXjXkXgXkXsXkX*X! z Q ] L . & * V * C ; & ^ ",
"y p O h 4 4 f 7 j W Q E ^.=XoX&X6XwXOX5X5XpXdX}.O.-.,.2.2.2.V.V.D.B.V.S.D.F.G.G.,XFXdXsXkXsXkXgXhX&X~ c Q ~ L & % = < * V $ G &.",
"y p w i 5 4 s 7 j c Q E ^.*XoX&X4XeX4X9XqXiXiX}.O.O.2.,.,.2.2.V.#.V.#.2.2.5.3.,.,XFXdXjXkXsXkXgXhX*X~ c Q ` L & - - * * 1 $ X.o.",
"y i y i @ # 6 6 g c v E ~.9XoX&X4XwX4XqX5XiXiX XO.,.4.V.2.#.2.4.V.#.2.2.3.B.4.4.XXFXdXjXjXsXkXsXhX*X~ W Q _ R . % 1 * V * ; G F ",
"y y p i @ 5 4 6 j v x R a.*XoX&X9XwX4XqXqXqXiX.X+.-.4.B.4.2.V.B.V.V.4.4.B.S.4.1.XXFXaXdXjXgXkXsXhX*X~ ~ ! ` R & = - * C * 2 G 8 ",
"y y h O 4 6 6 6 j x Q E ^.*XoX&X4X4XoXqX5X>XiX.X) o.,.2.3.5.3.B.2.,.2.,.2.3.1.,..XFXpXdXjXpXjXgXhX*X~ W Q ' R . % * * * * G U ^ ",
"y y ] O 4 s 4 6 s E c x ~.*XXX&X4X5X>XqXwX:XiXXX%.O.O.,.,.2.5.4.B.4.4.4.4.9.9.5..XFXdXdXjXgXjXyXhX*X! W Q _ L   - = < * * X.F +.",
"w O ] O 4 7 # 4 j x x x ~.&XXX&X4X:X>XwXwX5XaXXX4.1.=.O.O.=.,.,.1.,.,.,.3.1.<.,.XXjXdXsXjXpXkXsXgX&X! W Q ' L . % = V $ * #.8 ) ",
"p O y 6 4 4 4 f s x E h ~.&XXX&X4X:X5X5X5X5X5XiXaXqX>XXX X/.G.Z.<.,.O.o.o.=.1.7.>XiXjXjXiXpXdXsXrXOXW z W ' 0 : % ; V 1 1 G Y F ",
"p y i i 6 4 4 s j x x x y.&XXXoX4X:X4X4X5X5X5XiX>XqXpXaXdXdXdXdX:X>X.X}././.T.G.:XpXjXjXpXjXjXgXgX&XW W x  .9 : % ; H @.Y V 1 O.",
"p i i i 7 4 4 7 s v E L a.+X@X&X5X:X5X5X5X5XiXqXiXiXiXiXiXwX5X5XiXpXiXpXiXwX-X%XiXpXjXpXpXjXjXsXhX&XW x x ' 5 & % ; V M.D 1 - S.",
"p y i i 4 4 4 6 s x E h a.oXXX&X:X:X:X5X5X5X5X5X5X5X5XqXqXqXwXiXiXpXdXsXdXgXxXtXjXdXpXpXjXjXjXpXgX%Xc W x ' 3 & & - - T V U S 1.",
"y y i 5 4 4 s a s x E z a.OX@X&XoX4X:X:X5X5X4X9XqXqXqXwXwXyXpXgXiXiXwXwXqXqXqXqXkXgXiXpXdXjXdXsXhX&Xn c x ' : & ; - * H V *.^ /.",
"y y y i 5 6 7 6 s E E h a.OXXX&X&X>X:X5X5X5X5X5XiXwXqX5X4X4X:X:X9X9XqXqXwXpXsXsXjXpXiXpXjXdXdXsXuX+Xz c E Q : . % * * V < G ^ >X",
"y i i 5 @ 6 s 4 s h x z a.&XXX&X>X4X:X4X5X5X5X4XOX4X4X9XwXyXsXsXjXgXsXyXiXwXqXqXpXiXiXdXdXpXsXsXuX@Xg z z ! o & 8 * ; * $ $ D >X",
"p p i i 4 s 7 a s E x g a.&XXXXX>X:X:X:X:X5X4X5X5X5X4XqX9X9X4X4XqX9XeXqXyXiXyXpXpXwXiXdXdXpXsXfXuX@Xg x x Q : & % - V V D $ $ B."
};
