/* XPM */
static char *_0030_1c9af604e734e0aaa2fc2f947eab271dc0aed679ac0d721647bfb9b23653d5b8[] = {
/* columns rows colors chars-per-pixel */
"64 64 144 2 ",
"   c #111111",
".  c gray7",
"X  c #131313",
"o  c gray8",
"O  c #151515",
"+  c #161616",
"@  c gray9",
"#  c #181818",
"$  c #191919",
"%  c gray10",
"&  c #1B1B1B",
"*  c gray11",
"=  c #1D1D1D",
"-  c #1E1E1E",
";  c #5B5B5B",
":  c #5D5D5D",
">  c gray37",
",  c #606060",
"<  c gray38",
"1  c #626262",
"2  c gray39",
"3  c #646464",
"4  c #656565",
"5  c #676767",
"6  c #686868",
"7  c DimGray",
"8  c #6A6A6A",
"9  c gray42",
"0  c #6C6C6C",
"q  c #6D6D6D",
"w  c gray43",
"e  c #6F6F6F",
"r  c gray44",
"t  c #717171",
"y  c #727272",
"u  c gray45",
"i  c #747474",
"p  c gray46",
"a  c #767676",
"s  c #777777",
"d  c gray47",
"f  c #797979",
"g  c gray48",
"h  c #7B7B7B",
"j  c #7C7C7C",
"k  c gray49",
"l  c #7E7E7E",
"z  c gray50",
"x  c #808080",
"c  c #818181",
"v  c gray51",
"b  c #838383",
"n  c #848484",
"m  c gray52",
"M  c #868686",
"N  c gray53",
"B  c #888888",
"V  c #898989",
"C  c gray54",
"Z  c #8B8B8B",
"A  c gray55",
"S  c #8D8D8D",
"D  c #8E8E8E",
"F  c gray56",
"G  c #909090",
"H  c gray57",
"J  c #929292",
"K  c #939393",
"L  c gray58",
"P  c #959595",
"I  c gray59",
"U  c #979797",
"Y  c #989898",
"T  c gray60",
"R  c #9A9A9A",
"E  c #9B9B9B",
"W  c gray61",
"Q  c #9D9D9D",
"!  c gray62",
"~  c #9F9F9F",
"^  c #A0A0A0",
"/  c gray63",
"(  c #A2A2A2",
")  c gray64",
"_  c #A4A4A4",
"`  c #A5A5A5",
"'  c gray65",
"]  c #A7A7A7",
"[  c gray66",
"{  c #A9A9A9",
"}  c #AAAAAA",
"|  c gray67",
" . c #ACACAC",
".. c gray68",
"X. c #AEAEAE",
"o. c #AFAFAF",
"O. c gray69",
"+. c #B1B1B1",
"@. c #B2B2B2",
"#. c gray70",
"$. c #B4B4B4",
"%. c gray71",
"&. c #B6B6B6",
"*. c #B7B7B7",
"=. c gray72",
"-. c #B9B9B9",
";. c gray73",
":. c #BBBBBB",
">. c #BCBCBC",
",. c gray74",
"<. c gray",
"1. c gray75",
"2. c #C0C0C0",
"3. c #C1C1C1",
"4. c gray76",
"5. c #C3C3C3",
"6. c #C5C5C5",
"7. c #C6C6C6",
"8. c gray78",
"9. c #C8C8C8",
"0. c gray79",
"q. c #CACACA",
"w. c #CBCBCB",
"e. c gray80",
"r. c #CDCDCD",
"t. c #CECECE",
"y. c gray81",
"u. c #D0D0D0",
"i. c gray82",
"p. c #D2D2D2",
"a. c LightGray",
"s. c gray83",
"d. c #D5D5D5",
"f. c gray84",
"g. c #D7D7D7",
"h. c #D8D8D8",
"j. c gray85",
"k. c #DADADA",
"l. c gray86",
"z. c gainsboro",
"x. c #DDDDDD",
"c. c gray87",
"v. c #DFDFDF",
"b. c gray88",
/* pixels */
"n j f u i b.e r v g a f d ^ $.y.h.~ s a s p p c A x b.r 5 f l v B m z j N b.A P Q O.O.@.$.@.~ 2.$.n x l x A G H / R b.Z h A D C ",
"v z c x z d.l x Z P W c m B j <.$.u s s d d d d j V b.d : f x m V b V c M l.k c m C D R ~ W I W B v c c l k c m K Y b.g v B P Z ",
"B N M b b.i b V D H B x c m v ) { z c f n h a d z Z N b.7 q j V F n b n b.v g d g k v J P H J M m M m b k j c M D H b s.n A P G ",
"A Z B ] k.z S m M n m c M G k h a N v d b m M m M V j c.j , t b F v b X.j.r h g d p l S Z V A m m z b c l z m V b n b c.F v N S ",
"K I b.j.z v R f g f j M D B c n s b c b B b z n b k q 2 b.p.> v N z b.l.x s x k g g k c c h j b n c z f s x x k l k j l x.c.c N ",
"b.g.v M L c l s a y d b L c v b g b Z B B c c b j p 8 < 0 4 b.b.b.d.b g k j m v c b k g a d g m c f x k n h s u p s g c m h f.b.",
"f n b S B m l n k g i a v v k c c d c S Z b M c h p 4 4 9 8 x K h l x h a N C V V b s a y y a C c s j n c l f y y h a s d x l g ",
"Z F N b M b g k a u a f C b.b.b.b.b.d.C m v N n b l p p y p C U n h a p a l v B M x h k m b.b.b.b.b.b.S c z f a c f p a f u l h ",
"P J L M k s i d u u u b.b.l B A G 8.^ b.b.d x N C z f j c z D _ m y t p a s x c z c y b.b.W h B C b.I b.b.s d f g g j f f l B p ",
"Q U Z C k y h i u C b.W b.l C S #.Y J K G b.Y b b R H c x l D _ h 7 7 v s f z f j B b.A r ,.j N C b.K A V b.R k x j c g S i A y ",
"! D C B b u w z f b.n V ~ O.D H b.I A S h b.b.p b v M j a d Z _ e 1 4 e i h t z i b.K C P b.y Z A a.v H F / b.h d d a d d j v r ",
"/ A z k x l p i b.z A m M b.n A b.S C p b.V m b.c z j x d d x ~ 5 M r 0 u M i B b.6.L M Y [ 1.B ;.( l F _ k./ b.s d s y p l c r ",
"_ J N z b b g P b.-.d J z <.a.d d a.| b.v B n v.M b d d j k n ~ p q 0 6 x c t C b.<.b.N N Q a.d d a.` e.:.K L b.G d s t i d i t ",
"[ Y D v v b m b.A S b.b.=.d = % % * d $.b x a i b.g z l x b N ~ f 4 3 i A g q g...Z p b.d.d * % $ * d d.S S J A b.i s p s x l y ",
"u.` G n c l c b.B N C J a.= # + @ # * a.L b ( 7.b.u v x n C ' y.} P e h f a 8 b.F f c n a.= # + O @ = a.b x b l b.d z u p k z a ",
"b.0.#.c j f c b.M m n z d % + X O @ % d b.$.C A b.c n F K 4.j.b.b.e.| t q t t b.Z h z ; d % + o   o % d b.b.b.v.b.d a d s p i ! ",
"b.q.&.B b c l b.g w ' b.d & @ o X + % d j V A Z b.M l b j ( +.r.E G B i u t g b.h.b.b.b.d % + o . O % d r H G U b.g s b z U X.;.",
"s.} A V c s a b.k.{ x N a.= # + + # * a.C B V N b.s z f i t w H x r y p s j r b.V J H B a.* # + + # = a.C A S J b.p d ^ v x j G ",
"2.H S M h a u b.N b n h +.d = % % * d 5.b.h.y G b.Z Z a e s j q g i t h k r i j.J F J S f.d = & & - d k.b.p J ! x.f j B H n M B ",
"J N x l g t e S b.N g m b.| a.d d a.6.G I Y x.b.I s a m V t a w z s a r y h h Z b.g z @.5.( a.d d a.[ M S b.:.b.V F L m Z F m S ",
"D v z l p t d r b.I Z b.i D l b.v a b.B B v x b.a a t V Z s d p M g s f y t r d b.c | ( Z M ] &.A u.] B D K 2.b.H N K N Z A n n ",
"B A m j t r e i 9 b.b.w M A A k.S z >.g A N b.s v d S v M i s p B h k l f s u y h b.{ k l v l.N S Z b.v J Y b.u M Z f B A A x x ",
"M m k h a i y p j A b.K N m L ) A b k b.p b.~ a l j c x L r d d S d a i k g u p a L b.J N V b.V Z Z 5.p H b.G N k M s N S G m n ",
"n z j p p p u e l k i b.b.^  .L A x B b.b.B k k d a b l I i j x V h y g z B f s d g l b.b.R u.M m h ) b.b.a j c c M s B D F P G ",
"M z N d t u u t p y h l C h.b.b.b.b.b.~ c x l p l p M k I g f v N l l g g d g f d s l d S b.b.b.b.b.b.G k m j j n z d c B S H T ",
"A n h d a z z g f k y p c v f p ~ W b v x k d a g i B h N b a k I G B b b g g m c b k a d m H ^ h z n l d f a b m l c p z B H T ",
"b.j.v d u G v g S w e z z n v u ^ C N l l x k j f s Z g m C v.b.b.b.P B n g b A g v f u z m F [ g l n m x l f g B j h u h M z.b.",
"m B b.k.m n p j d i Y s k b h p ) Z C z A b n S k s Y J x.b.V N z g i.b.S v n s d c g z b v S ] h c m v m Z k g E G g z s.b.V m ",
"n b c O.x.p N N n c u p u a x u ^ Z m M d p z k h k b z.@.m J K b i A W b.m l M L Z c g k v A | l s f g h p c n n p p a.=.M n k ",
"d d k v b.z B B Z u w u i p h / -.m M M f s b F f d l b.F C N C m j H m t.T m C A S j v n Z I X.k d j j G n d s p g a b.c n z a ",
"f i z k h k.I n y f g p t g f #.q.z f l s g z M l d 9.E A Z D J B v K n i b.Z S R c Z S K L R | R V j D l m p u u p f.a l z l k ",
"h i i i v b.s D f f y y 9 q X.b.b.X.k g s N d f g j b.Y S F F J n S b A v b.Q / ~ Q Q _ ' ] / 5.0.*._ j g k f k C A b.s k v x z ",
"j h M v k b.F D x q y p s F ,.b.Y u p a z B H I / ^ b.E G F F A M n A V x b.B k h m l i s [ 3.b.8.E a d f i q r t w b.v j z v l ",
"j x v c k b.i e q u Z c u j T y.p n C N B G J C C U d.R C B Z V A N C Z x z.y t e e a r s g ` 8.O.l j g c M l c Z b p.V j i k v ",
"d l c z f.x 6 6 5 6 a f 9 d c ] u m b c x B S N m N V b.V b V M z G A H b.l i a e w s r a g h ] / B g f l x t b J m 8 c.i t e r ",
"w a g Y b.v a s h M h s q s s g d f d l v B V v x M B l.( x z h f M N ] x.c j p e e q w u a h I a l s f x x y z b l b z.T y r e ",
"p e 5.b.n l a y 0 0 y s f s a s h w r l n n M m N v z d l.c.f d a f b.z.l V g t u p Y 0 r u a L t d d g z j a j k j f c c.i.9 5 ",
"b.b.K B b m l f t g g v n B C i m r q z M m j h k j g s i v v.b.b.t.u z l a u s p y e r e e p T p u q p s p u i h g c v n C b.b.",
"M A A C N B V n x d d a n J Z d G F l k g N f r i i y H y y c  .f A n M z v p g g v r i D y p G m t v y a g Y n s k M k j h v B ",
"x R B S C V B V h g g d ! b.b.b.b.b.b.J d x n x 8 8 s n p t v X.j l P k l A k g G z k u N b.b.b.b.b.p.I s v G H z x x h d l n B ",
"h n n V V C C C n v c b.b.G A C h e.h b.b.y n r r 0 5 q p q z ^ f b L h D m m z M x k b.b.Z m N E P ' b.b.d i d j h d s x V N b ",
"x k c m V V B N N U b.h 9.I K J s _ V G y b.H a r w r r p i h E p c a g h z n v M U b.m b.n n N %.z L ! } b.I l g a d h x M n M ",
"z k l x M C C V b b.s E m b.J U $.H C H V b.b.s y y g k u g x ( r k H f l z x x B b.e b } ` B C b.n J K ! b.b.j h j m b j v m M ",
"x l x c N D Z C b.n T ~ Z b.R K b.B Y L b.n p b.u u s c v h b +.q Z K f f v n n b.p n M m b.u c b.p N K k.M G b.d z S N h f c F ",
"b b c v B Z C S b.b.M R F 8.a.d d a.$.b.D S H z.I d g m M N S / r J I p a j b I b.Q l M V 8.a.d d a.=.b.n B V b.L z d p s s z F ",
"B m N Z A Z C b.j x 8.b.q.d = & & = d =.L T N b b.c n V Z G D R V c j p j k x v.R z b.l.@.d = % $ * d } S V H K b.j d a a s k S ",
"S C H L U F V b.F Z M B a.= $ @ # $ * a.S V N o.b.B n Z G A C S ' R y f j s f b.S n R I a.= # + @ # * a.A { c.b.b.k g h h l v J ",
"=.~ [ ] ` E C b.j M V D d & @ o O @ % d b.h./ A b.z v x b V N ..f.#.] h N g z b.G m G k d & @ O o # % d c.U M G b.S S J L R T 8.",
"b.#.Y c k N A b.h ^ v.b.d % @ X O @ % d z V S B b.B m m N A X.d.l.6.&.M n n j b.P b Q k.d % + X X + % d M N v g b.a u t p y f _ ",
"w.[ f F z x z b.X.N g b a.= # + @ # * a.u C U Z b.z x c b b B >.-._ l l C v k b.b.;.~ j a.* @ O + @ = a.! l m v b.i j i k c s m ",
"..b d g z j n v.' G F C } d = % & = d 6.b.6.b F b.k l M M m n | F C v f j f c b.N m Z A } d * $ % * d ' s.b.S B b.j b y t f d M ",
"a c g h h l m E b.U H Z b.%.a.d d a.3.C B c b.b.E k l z m C V S N m b c c v B V b.N F S b. .a.d d a.,.H B 0 _ b.S x c p F u p M ",
"j k f k V C A S b./ D b.H F b b.y d b.C C V j b.h j c x n b B A m m v x m S N N b.z K b.n P S b.0 u b.B v b F b.v z v l f d c v ",
"j d l m S C S V c b.b.A K M B $.k l v.B N a b.x M h h h h m N B n z M m D H Z S h b.b.g K G l b.z x ^ ) F c b.l v x z v B V B v ",
"l h z z c m b b c Y b.n V b ! i a z x e.v b.Q c n b h h g v N m z N x b V A C V Z U b.U S M v 2.n c h b.! b.G j b c x x j k n a ",
"m p s s c B z l s g h b.v.k e.k C Z R b.b.j l v c j n h l z h V z N b b M C N C z n l b.b...[ } Z m K b.b.k t c b k p d i c C p ",
"f i p p l x d d f f g f D b.b.b.b.b.z.I l v n f h j j n k j z m M V d j n P Q T D z m h H a.b.b.b.b.b.K t P T d a a a d i h f a ",
"g i s m v i f d f g g j g j z ( N w w i S j v g d s j f j M j n b a D C c V Z M l G B g V B d h _ g Z i t r i s s a a n N B s a ",
"b.l.k A S n i g h k v g f h U ^ a t w t i A B F V f f n k m b.b.b.b.B F M m L A n x h d d ) j d  .n c f a d j z a a p j / b x.b.",
"N y b.k.v k p f k z c v g x W } p t q y y M C m D c g m b.h.p N Z x v.z.c g V v C B h l h a V a X.A b s s g v N p p t z b.b.u M ",
"c b z =.h.l y f m c v z c n V ) d d t u g b R N m j c b._ n l V D N z ` j.l c b Z T m m c x G p @.D v g f h x x l i k b.P b k c ",
"c b l h b.a p f n m b E B A G q.h k y y b d s j b x S k.h n c V I n v c b.Z g a Z I G m P n m _ | G B n m Z M c k s l c.v d g k ",
"n N b i j a.u y M V v n C Z D l.s A g p y a p a z d b.r x c f B L N b x C s.i p C B S B B b b ] ! G J A m N l f m m l.r x x v x ",
"m n z t y b.p v l j m S L E 0.b.( p V W I Z B a p a b.i a k d x N N z h B b.b H a a j g k !  .=. .A N x h s p r e u b.z k Z B m "
};
