/* XPM */
static char *_2078_31a9deb56cb8c501388b8051873751b8d9e011d9b76f7e372d08845298e4179d[] = {
/* columns rows colors chars-per-pixel */
"64 64 106 2 ",
"   c #0B0607",
".  c #0C0708",
"X  c #0E0909",
"o  c #130C0C",
"O  c #1F0D0E",
"+  c #170F10",
"@  c #180F10",
"#  c #171010",
"$  c #1B1313",
"%  c #210E0F",
"&  c #3A110F",
"*  c #230F10",
"=  c #221313",
"-  c #201817",
";  c #201718",
":  c #241B1B",
">  c #281F1E",
",  c #3C1312",
"<  c #26211F",
"1  c #2A211E",
"2  c #272220",
"3  c #2B2423",
"4  c #2D2926",
"5  c #2F2B29",
"6  c #302725",
"7  c #312A26",
"8  c #322D2A",
"9  c #382E2B",
"0  c #36312D",
"q  c #39332E",
"w  c #363331",
"e  c #3B3532",
"r  c #3E3935",
"t  c #3F3C38",
"y  c #421615",
"u  c #471816",
"i  c #491916",
"p  c #471918",
"a  c #4B1B1A",
"s  c #511F1D",
"d  c #54211F",
"f  c #552221",
"g  c #5B2624",
"h  c #5E2927",
"j  c #403632",
"k  c #413B36",
"l  c #433E3A",
"z  c #483F3D",
"x  c #612A25",
"c  c #642C2A",
"v  c #682F2D",
"b  c #6E3431",
"n  c #723734",
"m  c #45413D",
"M  c #4A443E",
"N  c #474440",
"B  c #4A4642",
"V  c #4D4A44",
"C  c #4F4D48",
"Z  c #514742",
"A  c #524D45",
"S  c #524E49",
"D  c #594D4A",
"F  c #545047",
"G  c #55524C",
"H  c #59554D",
"J  c #5C584F",
"K  c #575551",
"L  c #5A5651",
"P  c #5D5A54",
"I  c #5E5C59",
"U  c #605755",
"Y  c #625C54",
"T  c #685E56",
"R  c #625E59",
"E  c #646057",
"W  c #65615B",
"Q  c #6A645D",
"!  c #6C685F",
"~  c #666460",
"^  c #6A6661",
"/  c #6D6A64",
"(  c #6F6C68",
")  c #726661",
"_  c #726C64",
"`  c #726E69",
"'  c #786F6C",
"]  c #747067",
"[  c #797067",
"{  c #75726C",
"}  c #7A746C",
"|  c #7A7671",
" . c #7E7A74",
".. c #7F7B78",
"X. c #80756E",
"o. c #847770",
"O. c #817C73",
"+. c #827E79",
"@. c #868077",
"#. c #888076",
"$. c #84817B",
"%. c #89837C",
"&. c #898580",
"*. c #8E8B85",
"=. c #928B84",
"-. c #979089",
/* pixels */
"2 3 7 7 w . ( I C C S K ~ I m w > W | { ] ( ( W I / X B r e 7 5 2 3 5 5 7 X P V B N N z r w t t B D V S M M M M m M o r q 7 < < ",
"3 4 4 7 w 2 K C m w w N C K ~ r 0 ( L L G G G G G K 3 P t w 7 4 2 3 2 4 w > C N N N m t r w w l B l l z m m M M m k 7 M 7 7 < < ",
"3 2 4 7 $ | C m t w t N B B C P W I K K G G G G K C W o e 7 4 3 < 2 2 4 $ ` C B B B B t r l r B M m k k m m k m q m M - 0 1 < < ",
"1 4 7 m : C t l N N N l B m G / | G G L G G G G G N G 2 P w 0 5 2 3 5 z : K V B N C B t z N m V F M m m m m k m M M M 1 M 7 7 1 ",
"7 7 $ $ I N t C C N V t l C C I { K C G C B C B N V G I $ < B w 5 8 $ $ K C N N N N t N C V N K F M m M M r M M M M M M < < q 7 ",
"X : | C t N N C V C V N t B B I ^ C V C m N N N V C S C K / : . X : { G N N m m m N B C C V B K F M M M r m M M M M F M M ] < X ",
"{ K G N N m B N N C C C V B S ~ $.I P C t N l B V C C C V B N K ` K G C C l t t t N C C G G G ~ P C V m m M M M M M F F F M F _ ",
"K B B N N B C N N C C K ( 2 o o X X 4 { C N N l N V C V N N t C ^ L P K C V m m m N B K | $ o o o # : E M M M F M F M F M F M Q ",
"C t t N C C C C C C ~ + + Q D Z z Z + o o ` G B l V V N l t t t ( L L L C V m B G C I # o A B m F $ ] # # ] G M F F M M F M M ] ",
"N t t m C C C C K $.o *.V k 9 6 9 k X e L X ..S V w t t N l t l { P L G G V B G L $.X V e r 7 r M   0 t !    .J F J G M M F M ] ",
"l l t m C C C C { . ~ . Z e 9 6 e Z e w e G X ` N N t l N N t t { R P K A B L G %.o 3 e w r 9 r J $ w r l J   O.J G J J J M M ! ",
"l l N N N C C K o ( t N o B k M z X l w e r / o K N N l N m t m { V P G C C P L o X.) : l t B A V B m r r m ] # E G J J J F M E ",
"l t m N N B C ( o m l t z o o % * @ D r e t N + ( N N N N m t t _ J G G V S R %.o m D o.O [ o % $ o J t e r M # } J J J J J M ! ",
"t r t m N N C $ [ z 8 e D % & u y , @ D m l z ~ ; N N N m l t m { G A V B F I 2 M 0 M J D * , i a y O F m k F o < J J J J M M E ",
"> t r t t l B o H l 9 e o , d h f a , o R I I 4 + C t N l t m 3 t L S V G G W X z q k Y o & d h c g y # X # J M X J F J J M M E ",
"; 2 t N B B K o A k e z @ p g h g g a * o e N N o ~ C N N w > $ : > B ^ ^ { =.o j j m E % i h v b v d % } m q r X O.! E E E E @.",
"; 3 e S S D ( o J M Z O % p g h h h a % L r e e X / P I ~ P t 4 { G G I I / ..o e e z ) * p g v b c d O E k q q o } W K P K m N ",
"> z z z B B D + o 9 Z Q o , f h h g y o M 9 9 w X G N C C G L W P S F C A G / o e z @   + , d g h g y o M 6 1 7 o Y C t V N V I ",
"e z z B B B S : M q j M Q % y a a , = / m r 0 l $ C N S G V B I I C G G G P W 3 X ) H A | % , a p y = j V 8 7 0 $ P G B t N N K ",
"D B B B Z V A ` # q j j Z ) O O = o o ) B r w + / S S C N C V G P G K P P L G ..o m e e B ' o * = o L # T e 0 + %.C m V l t l C ",
"Z B B B V B B D O S r m M T X Y D j k X R k S o K C G N m G B G K C G L L K P I @ F r 9 t N R w z r m B 4 M l # I B N C m t t C ",
"D l B V Z A S S / X A m M T T M 7 q j r   U X ( C K m N K G C K G C C G G G K P +.X V r e t > w 9 0 l r Z H X $.C B C B m t t C ",
"L B Z A A A S G D } X E M O M j k q M m U o ( G B B N V C K V K G C G G S K G K I +.  V 0 e . 8 7 w l M ) . %.C C N K B t t t B ",
"U B V A A A D H A G [ o o @ T D M M ) # o ~ G C V G B V V G V P L C G G S C G S K P ( o + S + w w e P # + %.K G B N C B t t w N ",
"U V Z S D A G H G D F P X.> o o # o $ L B N C C C C V C V K K W K C S S G K S G K K C K ~ $ + + o o $ | I K C K N N C N N t r w ",
"R A G G G G D H D F J H S A S ` M k B m l N C C C K N C C I ~ ..K B C G C C C C C C N C C K B C ..K C C K K K C N N N C N N N t ",
"o 4 } Y P M S D Z Y J A S B M Q l t m B N m B C G K B C K ..2 . X : W K C S C N C B C C C N t t ( C V V C S K C N N N C C I 4 X ",
"4 w O 3 U H Y J S G M J H D Z ! l t N B N B B B C K V P 2 + N l t S $ $ P C B C C B N B N N l t ` G C G C B C C r t N C 5 X w 5 ",
"4 5 8 t < W G S A H T J L G M _ t l N B C S C S G G K < l 0 4 5 e t t I $ C C C N l N B V N m t ( P K K K C B N N B C 5 5 5 5 5 ",
"8 8 5 8 $ %.F A H Y P J G A D Y r l m B C C C N K K $.# 5 3 4 5 w w 4 r > ~ C B l N B N N l r e / K G G N C C B C N I o 2 2 2 5 ",
"8 8 5 8 t : D P T L A A A M Q 9 3 C B B C C B B K I 8 5 3 2 2 3 8 w 0 t I $ B l e B N l r r w 0 ~ P G N N t B N N B 4 w 2 2 2 5 ",
"5 0 0 w w . } W ) Q T U U Y j > > V G K P B I I ~ { X 4 2 2 3 3 5 5 w w m X B l z N l t e e r B 2 w G K K C K K C K o 5 4 2 2 5 ",
"5 5 5 5 w o / P L W W I / { 8 - +.` / ~ I S C B N N o 2 2 2 2 2 4 w 8 w t o | { ( ~ ~ ~ ( C 4 ; 6 H L H M J ! _ !  .o 4 < 5 4 4 ",
"5 5 4 5 t $ K S C V t C L L ! 3 { S B C N l t m N N 8 4 2 2 2 2 2 4 3 5 t $ ~ K G G C C C C B 3 w S M Z M M M M M M 8 q 8 5 4 4 ",
"w 5 8 t : ( K K G G V G I P W W | S S S C B m N N N I + 4 2 2 4 4 2 2 5 $ $.P K K C C B B B C B Y M B Z M M F M M M ! $ w 8 5 0 ",
"w r N I $ K C G C M C J P P I { | P I K S B N B C N C : w 5 4 4 4 3 4 t $ K K K S S S C C B N B ! M A F M F F M M M M 1 C e w 0 ",
"t K < $ K B C G S G S G P P P { ( I I L V V C V N C C K : ; w 8 8 w < $ ~ V C K G S t C C B z V ! F F F F F F F F M M M < $ V m ",
"X $ I G C V C C G K G G G H G W | I P K C C S K C S C C C ~ ; o X 2 $.I G K K S S C S C C B N B ] H H H H J H H H F M m M J < X ",
"L N m N N N N V K K K P H V J %.&.R R P K C K K S S S t C C B z ..P C C C G P G G C G C N C C P | E J E J J M H J M M m m M m M ",
"G w m l m N V S P P P ~ } < # o o + $ &.I K S C K C C N N N m t ~ C m V C B K K B C C P { ; o o o o < ] E H M M F M M M M m k r ",
"K N l l N N B C L W  .o o M 7 7 3 0 [ o # +.L G C C C C V m t t I B l C N B G K C C I # o } F A M F ! o # { P F M M M M M k e k ",
"K N N N t N C C G +.  / k q 7 7 7 Y B B W   +.G C K C C N N m m C l B m N N B C C ( . N X B l k e e t E M   @.J F F M M k r k k ",
"C N N N m m N C ( o #.k e q q q j ) z e e N X ( K C C N V m t w K N r N N m N C I . w 5 k D k q e q m   M E X ] M M M r k k k k ",
"K m N N N N N C # V   _ M M M M o / M w 8 8 m + K K C B N N l w ~ t r B N N t C # m 5 8 r   B z m r o E m t E # F M t r m M k m ",
"K N N B N N N I o e 7 X } ' X * * o T r 8 8 3 o ( C C V N t t e / N t G C N N I X 0 7 e N V o % $ o # M t q t # E M M k m m k M ",
"C l l m m N C 3 F 7 7 t @ * , a a , @ D e 9 X $ ; C N N l t r r | K C C V N G $ C w w z ) * & u y & = J t q 8 M $ k k M k m m M ",
"B t t t t N C o z 4 4 k o y f c c f y @ X G V L o B t t t e t l t P K C V V G X M e r S o & a s d i , o k 0 5 q o M k k k k k M ",
"K N t t t N I o l 3 9 B % p h n n g p * B r l S o I C C C t B P : w G ~ K I ( # W z V 9 * u f x x d i % M q 5 0 o M k M m m k M ",
"$ q | _ ] ! O.X m e r M * i v n n d d % m r k F o ~ G G C K t 2 : 1 k H S S / o [ H Y ) % i d c c d d * > 6 9 M O | Q ! ! ! _ ] ",
"6 L R D F J E X J M ! o $ y d v d d y o r q r C o S N N N N N 4 7 z B M z m D o D m l M X y d g d d & o A k k F o A M H M F H ! ",
"F H P Y J J Y 1 7   q m E % i d i y * # k 0 r Q $ C V N N t l l D z B B B V S : ) k j l T % y a i y * T m q j E $ M M H H H H Q ",
"/ H J J J J J  .o 7 7 0 k E o = * o Y M X k k # ( C C V N m t N Z z M B Z B B } O M q 0 r O o * * # j M j j M @ ! M F J M J J ! ",
"E F H J F F F F # M 7 9 j m Y o H m k j m   / o I C N V B N t N S l z M M z M L o ! j 9 l o e t m M   M q 0 A o J M M J J J M E ",
"Q F F F M M M M E X M q q M H 9 r q r q 0 V X ( V C C V C B N N S z l z l k m V o.  M q X t 9 8 7 r E M j k X Q M M M M M M M H ",
"! H H H F M M M H @.X T m j Y M j 9 q r F X | C C V C C C N t C D l M B M z M V Y =.X k B q e 0 q m M o J X | A M M M J J M M ! ",
"! J J J H M J F J M ! o O ) 7 J M M F # o | S C C G N C C C C C G M B B M m Z A H Y #.@ o S m l M M } o o [ H A M J H J J J M ! ",
"] J J E F J J J M H J J ] < # o X X : ] L C C K G S C C S C B V S B S A V M l M A H J ! =.: o o o # - ] J M M F J J J J J J J ! ",
"@.E E M M J M M H M M F M M F F $.I P I C G V G K G G G G V S G / L B V Z B B D H A H Y Y Q ) -.J M M F M F M F J M M H H J E #.",
"X 8 O.J M J J J M H M M M M l l { G K L L N B N V S G G K ( 2 o X 1 ) D D G z B D J J Y J M T O.M M M M M F M J M H H J M ] q X ",
"M M o 4 E M M M H M M M M M e k { G P P L K V C N C G I 2 # B r q r @ > Q J G A M H J J J T T O.M m M M M M M M J J J J 1 o ! M ",
"q 0 q m 1 J J J M M M M M M m M ( S L P K S C K S G K 2 A r q 4 4 4 8 B : R J G F M H D J J J #.l k l m M m M M F J E 1 Y m q q ",
"q 7 4 0 # O.J M F M M q M k k q W V L L C L P P K K ( + V 0 0 8 < 3 3 7 O O.Y Y H M M F M J ! } k k k m l k m M M J @.$ q q q q ",
"4 3 3 7 k < J J M M m m m m M < { N G G G L P P G R 4 Q m 0 0 0 2 2 3 4 e : E T M F J E J J ] M k q q k M M M M M E 7 M q q 7 7 ",
"1 1 4 8 q o ! J F M m m m M q -  .R G P W ~ ` ^ R _ X V t 0 0 7 3 2 4 4 4 o _ P _ _ @.#.#.[ M 7 M r m F J J ! Q Q O.X k q 7 1 1 "
};
