/* XPM */
static char *result[] = {
/* columns rows colors chars-per-pixel */
"64 64 72 1 ",
"  c #040403",
". c #080705",
"X c #070804",
"o c #0A0A06",
"O c #0D0D09",
"+ c #100F06",
"@ c #100F0B",
"# c #0F1006",
"$ c #0F100A",
"% c #111307",
"& c #13120D",
"* c #19150E",
"= c #17180B",
"- c #1A1B0C",
"; c #161511",
": c #181712",
"> c #171812",
", c #1B1A14",
"< c #1E1E18",
"1 c #211E0E",
"2 c #211E16",
"3 c #211F19",
"4 c #1E210C",
"5 c #1F2114",
"6 c #1F201B",
"7 c #22250D",
"8 c #2B320D",
"9 c #222215",
"0 c #292412",
"q c #272A13",
"w c #292E14",
"e c #24231C",
"r c #29261D",
"t c #27281E",
"y c #2A291E",
"u c #312C1E",
"i c #272620",
"p c #2A2721",
"a c #272821",
"s c #2C2A22",
"d c #2F2F29",
"f c #312E25",
"g c #322F2A",
"h c #2F3126",
"j c #323125",
"k c #393625",
"l c #373927",
"z c #34332A",
"x c #393629",
"c c #3D3A2D",
"v c #363632",
"b c #3C3C32",
"n c #423F32",
"m c #3B412C",
"M c #444134",
"N c #4E4636",
"B c #43423A",
"V c #49473B",
"C c #4B4B3D",
"Z c #524B35",
"A c #56513E",
"S c #474641",
"D c #4A4740",
"F c #4D4B40",
"G c #524F41",
"H c #525145",
"J c #585344",
"K c #5E5B4B",
"L c #605C4B",
"P c #5F6058",
"I c #6A6656",
"U c #6C6B5B",
/* pixels */
"X       X oX X        X  X XXoX     .X XX XXXXXo%  XXo##o%X#oX X",
"=%oo+%XXoXoXX78-%#4=#o####XX-47q=o -=%++--%=%+%-%%%%#%X%%#=4-=%#",
"++%@+=  +Xooo7o%X%o##Xoooo X%4%%%. ++X+o11=%%X=o#oX%##X#####%###",
"**@%o%XoXXX%Xo%%%Xo%XX#XoX %##%#+.o-*@**1=%7=X%X#%o%=%o%o%oo%#-4",
"@o@o.+          oXXX o$oo%XX%oX#X or2%+@0Oo%% XX  oo  oXX X o##o",
"XX.+@@,:<%*,o4- XXo##4778%O%%q*.X.@o@*,,*-o%%-1=-%O%=o$Xo=o%##=#",
"XoXo%.O;<,-=.-%== o#Xo%*q-4&@5=O:2aa<;:2e,oXo#%o%.==4==$=%o==%oX",
"XX   .&@&%:;o%%%oo#%o#=O,j6>ryt&<<<p9;,,<2=%%o@%o=%=-qw%%o +o%XX",
"   oo ooo.@;O&OOO OOo*,&@;:<3sa;<3,;&.&;O:Oo @o >##oo&&Oo  o@XoX",
"                       .    o..  .o       .     X     X         ",
"   o.oO$.dDbii>a;eot,>tt:;3exsbdt&x9tt;a<bxgas@;5t95m5<,*O&o..X+",
"O@O&;;>,&PbBBa,<@:e9OO$>e@;:,,<:O.<ds<>>;3,;<<,<5&,h6666<&;:O&&o",
"  o $&,&;SvzSv3s<rxes:,$: :,>;>;,XO$,O<O@;;i<@@iaazb6<i6,O;@@.& ",
"     .       @@;& o@&O ..            X   .OOO   o oX.o          ",
"O&&$.Opcagptxe&:;@9clttorf<OCs6i;&eateer;6ia@,,<>,,UHBG@>;>@:<,@",
"Oo oOoOO&@o&&:;:;%,=*o$Oute;>>>&o*e,<>;<;s6i@66;&><UUbK;;3,@%o@ ",
"OO$$;O><9,;&e,6,&&$$;;>X:.  @<;;$O&$6a;$O;<<&<9>;&6UUJL;>,,O>;O ",
"  X&O        XXXoo             .    &oo O        oo;.OO.o       ",
"$o;o9<6,6<rjhb<jdtaeslht3Oe3sgiidtd,6<$&$$O9<9&Oi>&><,&<; : ;,;&",
"e$OX$&O%.<O>eh&&O&,,9*;,;.3pgg66O*,;ii6,<;;,,<<O<a,Va>ee3@O;&;;N",
"r.. XOoOX;za6$;&;,9 $<;O;O9as3&,ar;@>;$;>;O>,<<.ZAIIN;&;<O&;;;&k",
"O        ;oO Xo  o        ;>o3&oo:@  $  $Oo     +:2er     OXXo *",
"%O>9<,6e,deDx;et<;rt,,edccrada<at*Mn,,=66e>,;iS6,a,zex,ia,t:%,6%",
"o&$O$>$&$6><,o>,:;&OOO&,<9<eo,sd*oe<$&&>>$;;$;di::,nxn,<isde&%#*",
"      .  ooo>X&;9<%@&O&t2t:,.OOO&OooOo.     oO,@af,xgDsO;3;@.O o",
"  o  e<;@o>o;        . .  .    o            ;6s>:p3@,OO.OO.@..  ",
"o.O<2-fsv:>,eei<3:tdjssz,jlcf9,9><&% ;;;;Bvp:ibBpp,,rzFgg,p,,t;;",
"o O&*,pp,>,,XO;&;&t;e9ta;2t<,;@:;&O  ooo:dii<igskyrf:pbvd3i2-,O@",
"X  O%.;,3:OOOoO>,O;O&&@@.,:3e,@@:&@ o&;o@@6i@;6;233u,Hppis33:,o.",
"       .o.       Oa<OO.O. o..oo.     oo O@.O@v.@::@*:p;,p@:@oo. ",
"6j%&o;3:3,;,,@6<e,9;;@p3e3e.;:2*o@;;,;;;::,,@<,6e,@3e3pf33,e,&:%",
"y=,;.O,,:,,,:;<,<&<,;@:;,3; 3,,:oo@;:;;e;,<:;O.3@2O2;22,2@&::.&*",
"<<t& &@;,>;,;&<,>*;;:O>,3:>. *@@o@:;O&OoO;@@:;@O@..@,<,&&&,2:&%:",
".XO     *.$Oo.<o;> o o  .         oOO.o ..@@@O@.@..       o.  o.",
"oO;;Oo ;>,$6<<t<, ;oOOO$OOo oo@&@&3* ;>;::<:ii;;;:;@O;@;,O&o.&&O",
"O%O;:Oo&;&oO&*@*,o:;9aaa6@&=O;O,:<a,@@@;&pi;6<:i<<<6><@,:@$o,.*$",
".OooOOX;&$O&&o@@oXaOOo,&;3s;O;@e9@.,OO,,:eO..@;,:;<,&,@;;oo..oo%",
" OX$oOo&OOXO:o   .;;;  o;;,>;3O9 ;22.....;.@ooo,..O    .@oo .Xo ",
"         .X      X      o<@.      .o . ..OOO. ..O ..&O@;oooOX   ",
"o.X &OOoO&&X+@oo&+@@o *d;9a:.Ctz,c;OO........&@,;@<:is;O;et<&O$.",
",ooo&O.O:::.OO...*+O .@o-oO9 Mf3n,&;;O;.@>;  ;>O,o23pfs3;,::,O&@",
"... XX&O;:;oOOo.o.+: ...  o .f:O,3;i<,,@@O,:.>3,3.@,rps,&,:<:.OO",
"           .     .           :. .O@...  . .....  oO ..o;;oO o&O ",
"$X$Xo;;O;:2::2ep3y:*@;;&*,&,,3:;F6<:a,,OoO,<:<z;<p,.O:,<i;;@>&;O",
"$OOo.o;o@&2o2:3,:@;O.oOo@;,<&,;oi,;o>,;>;;@>ppOo o  .;;&;;O.O:;&",
"OOOO   . o   ;,O.Oo      ;%O .o.; oOi<iae3;@3s> .O$OoO;oOooo;@&&",
"      ooo..;&&;@OO       X. .. .oo.,,; &;@,i.  ..    .          ",
"ooo. &o.ooO.&O;;>O;O;3psn3JANny,>2>@,<i@,sa:@g:<<;apf3:zps;,:o.o",
"o@oooO..OOo OOO>;>@ O;6g:;Bvnf&*<eiO;;>,;;O Od.;,<<p;;@,iO;;;@;o",
"o@OooO. o;o o XO    ;<;66;vptprue><O;;;OOOOOOO.Oa,e;;@6,g6,O;o@ ",
"        . o         ;<; :63:;.X.O&$o    .  OOddi.o6,   @;.      ",
"o@;;;<,:@>;;;>Oo ;;O<<; @,<:>tahte<,i;>i6>;:::,@:@3;&o;&,OO;,,;O",
" .O&O@@@O  .@&@@ ..O;O; <@<..3&9**>%;OO..OO;oo&.;@ooo.&o;o&&*&&$",
"ooO@;&Oo OO;O   .OO;OOO .OO ;>*O-ooo@.OOOOO@@.o.O@;ooo;@&;ra96=&",
"    oOo  oOOO.OO.O:O O.OO;..    X oo.OO ;OOO. . ..O   .. e; OOoO",
"            .   .       .. O                   .     @ .  @OO XX",
"OOOOOOOO&;@;;;;;:;:6,;O;:o33Zn3;;<:p:;<&@;<p<:@O@*..23@O,;:Os;*@",
"@.OOO.  . .&;O;;@;;;:;@@o@3skng:;o;oO@:@O;::OO;@;;:@O.@O,o..;o.o",
"&@;OOOO.@oO@OO;;;;,,@OO;o 3fknp@;3eo&:;@O@::@@;;3p3::1OO<i:.,::&",
"      . .O  OOOO....O.   ...2@;@*,; o&@.OO:O : ;2r@@@*@@::O;o   ",
"  OO@;@@ O.;66a;@3.,;3;@*:;2p.;@,2,@&:,3r,O;*@23:@3;@@O@o,,;:,:>",
"@ .O@@@;;@OO;;;>;;@@;@;;;;@2r*;;;3@@oe3p;r;332rp3;3;33rr&,,,,,;,",
" O;;O;,<OO@;OO;;*;@@OO;:;**3p;@**;2;.+O&@......@@..;;*,@.&  OO;o",
"   @O . .O.OO.  .....O.@@*2*;.@..@23:3p3...:3p233@:33rpe:@.OOo  "
};
