/* XPM */
static char *result[] = {
/* columns rows colors chars-per-pixel */
"64 64 194 2 ",
"   c #0B0602",
".  c #0E0805",
"X  c #120B06",
"o  c #140E0A",
"O  c #16110C",
"+  c #1A130C",
"@  c #1D1711",
"#  c #21190F",
"$  c #241C12",
"%  c #281F13",
"&  c #231D18",
"*  c #2D2316",
"=  c #26201B",
"-  c #29231D",
";  c #2F291F",
":  c #302617",
">  c #342A1C",
",  c #3A2E1D",
"<  c #302618",
"1  c #3C311F",
"2  c #2D2822",
"3  c #322C24",
"4  c #392F21",
"5  c #3D3322",
"6  c #36312A",
"7  c #3C362F",
"8  c #3F3932",
"9  c #413522",
"0  c #453925",
"q  c #493C26",
"w  c #443B2B",
"e  c #4C3F28",
"r  c #443C32",
"t  c #4E412A",
"y  c #53452C",
"u  c #57482E",
"i  c #59492F",
"p  c #4C4334",
"a  c #4B453C",
"s  c #524632",
"d  c #574930",
"f  c #5C4C32",
"g  c #554C3B",
"h  c #594D3A",
"j  c #5F5036",
"k  c #5E513B",
"l  c #604F32",
"z  c #635235",
"x  c #65563A",
"c  c #685738",
"v  c #67583D",
"b  c #6B5A3C",
"n  c #4E4940",
"m  c #544C41",
"M  c #565047",
"N  c #5B5344",
"B  c #595349",
"V  c #5F584E",
"C  c #625642",
"Z  c #645945",
"A  c #6D5E41",
"S  c #645B4C",
"D  c #6A5F49",
"F  c #635C50",
"G  c #6D624C",
"H  c #6F6044",
"J  c #736345",
"K  c #75664A",
"L  c #77684C",
"P  c #7B6B4C",
"I  c #6B6353",
"U  c #6C665A",
"Y  c #676154",
"T  c #716652",
"R  c #756A54",
"E  c #7C6E51",
"W  c #746C5B",
"Q  c #7B6F58",
"!  c #7E7053",
"~  c #7E725A",
"^  c #736D62",
"/  c #796E60",
"(  c #7B7363",
")  c #7C7669",
"_  c #7E786B",
"`  c #837455",
"'  c #83765A",
"]  c #87795B",
"[  c #8A7C5D",
"{  c #847A62",
"}  c #8C7E62",
"|  c #847C6D",
" . c #807460",
".. c #907E64",
"X. c #847E73",
"o. c #8E8062",
"O. c #8B806F",
"+. c #928465",
"@. c #948669",
"#. c #96896A",
"$. c #9A8C6D",
"%. c #9D906F",
"&. c #868074",
"*. c #8D8475",
"=. c #8F897A",
"-. c #878178",
";. c #938A77",
":. c #9B8E71",
">. c #938C7C",
",. c #9A8E7A",
"<. c #908576",
"1. c #9E9171",
"2. c #9B937E",
"3. c #A08F70",
"4. c #A29474",
"5. c #AE9777",
"6. c #A59877",
"7. c #AD9877",
"8. c #A3957B",
"9. c #A69979",
"0. c #AB9C7C",
"q. c #B39C7B",
"w. c #ADA07F",
"e. c #B7A07F",
"r. c #B8A17F",
"t. c #938D84",
"y. c #9B9483",
"u. c #979080",
"i. c #A49C8A",
"p. c #A69A85",
"a. c #B39E81",
"s. c #AEA080",
"d. c #AAA18E",
"f. c #B2A484",
"g. c #BBA483",
"h. c #B5A887",
"j. c #B4A789",
"k. c #BAA68A",
"l. c #B6A989",
"z. c #BBAD8B",
"x. c #B9A987",
"c. c #BDB08E",
"v. c #ACA492",
"b. c #AFA896",
"n. c #A6A090",
"m. c #B4A693",
"M. c #B4AB94",
"N. c #BAAD91",
"B. c #B5AD9A",
"V. c #B8AF9B",
"C. c #BDB193",
"Z. c #BCB29C",
"A. c #BEB6A2",
"S. c #BFB8A4",
"D. c #BFB9AC",
"F. c #C1B18E",
"G. c #C1AF95",
"H. c #C3B492",
"J. c #C7B894",
"K. c #CABA96",
"L. c #C2B69B",
"P. c #C5BA9D",
"I. c #CDBE9A",
"U. c #C3B6A2",
"Y. c #C3BAA4",
"T. c #C9BEA3",
"R. c #C5BDA9",
"E. c #CBBEAA",
"W. c #CFC09B",
"Q. c #D1C29E",
"!. c #CCC1A6",
"~. c #C7C0AC",
"^. c #CBC2AC",
"/. c #D3C6A6",
"(. c #D1C3AB",
"). c #D6CAAB",
"_. c #CDC5B1",
"`. c #CFC8B3",
"'. c #CBC4B8",
"]. c #D2C6B1",
"[. c #D2CAB4",
"{. c #D4CDBA",
"}. c #D8CFB9",
"|. c #D8CCB0",
" X c #D7D0BB",
".X c #DCD2BC",
"XX c #DCD1B6",
"oX c #E0D6BF",
"OX c #D4CEC1",
"+X c #DAD3C4",
"@X c #DBD5C8",
"#X c #E1DBCE",
"$X c #E5DFD2",
"%X c #FF0000",
/* pixels */
"^ Y.R.~.^.~.Y.s.6.M A.S.~._.2.X.^.R.Y.V.Z.S.U 1.f.e.w.9.0.s.6.$.$.[ 5 S.~._.R.O S.S.S.B.B.b.y.o.O y.b.n.b.Z.Y.;.m Z.V.m.i.p.;.$ ",
"^.c.!.R.C.z.z.s.W j.T.h.z.c.1.Z._.h.z.j.l.z.w.C 1.9.$.1.#.1.$.@.` z *.[.T.s.j.B z.c.Y.s.s.s.s.9.A.A.S.z.l.c.s.@.U.a.5.q.F.g.F...",
"M.f.f.z.z.f.j.6.@.C.c.j.s.s.G w.w.w.w.f.s.s.9.v P 1.6.1.z ` z f y + z.!.c.z.h.Q 1.w.c.z.l.s.6.S ~.z.s.s.w.w.w.g P.q.q.q.5.g.q...",
"4.s.s.w.s.f.4.w P z.c.z.c.w.~ f.h.h.l.6.6.1.v g q [ H z d T Z.Q.I.Z c.C.c.z.l.o.5 ' s.z.s.s.#.=._.j.s.s.h.w.w.N q.q.5.q.q.q.q...",
"@.f.j.w.s.4.o.A.O.L 6.9.w.v H %.s.a.o.P d { Y.j.1.p d. XXXQ.Q.W.9.v z.c.z.s.s.#.R.=.y P 6.4.x l.f.f.w.z.l.s.@.@.g.q.F.g.q.q.q.[ ",
"+.s.s.h.w.[ I )./.9.1 T >.M.Z H ` b V b.R.Z.s.f.{ |./.H.F.F.z.0.y o.1.0.w.s.w.' a.N.s.Q d P p f.s.f.l.c.c.1.v o.5.F.g.g.g.q.5...",
"E w.s.1.$.y P.W.K.c._ !._.j.C.4 | Y.Y.l.l.c.l.4.~ W.W.c.z.f.%.b * ` ` ] $.4.4.P @.l.l.l.j.5 :.f.z.l.c.l.s.+.> K 3.q.5.5.5.5.3.A ",
"K 6.1.4.K K J.J.K.c.G c.c.j.s.1.L.`.z.f.s.f.1.A 1.! u k ! ;.2.- - *.( g 5 y J z C 4.z.z.j.x 9.f.c.j.f.f.%.j X z ` 4.5.5.5.5.:.v ",
"9 P ] K 0 ` z.l.F.w.b z.z.l.a.:.$.a.s.s.4.6.] X Y A.[.P.c.c.z.y.,.g.g.q.a.(.U.D X z $.0.9.f 0.f.h.s.f.4.x Y ~.a q J 4.6.q.g.9.A ",
"^ _.Z.u.W N s t z H c @.l.l.j.$.#.l.z.6.` G V.8 R.z.z.z.z.c.z.} ..q.5.5.5.5.5.m.7 B.C J b A 9.f.%.6.%.L Y P.C.C.4.o u } $.6.9.b ",
"M.P.{.[.H.l.z.4.Y.(.q.s w.l.6.H L 9.:.h U.H.P.^.g s.w.f.f.j.w.~ ] g.5.q.q.5.q.s U.H.].R.- z 4.#.6.$.b n P.c.C.c.z.l.w + z +.6.z ",
"#.j.s.l.z.l.l.4.[ g.F.5.1.l.%.x y K u.}.F.F.F.z.+ :.f.w.w.w.1.y d :.q.q.0.q.0.+ P.F.H.F.L.y.z 6.6.z a  Xz.s.s.c.F.z.6.f   * l l ",
"L s.c.c.h.f.6.@.y 3.5.q.J 4.$.z   T.F.H.F.H.H.H.Q x 4.0.l.6.J y y ] $.4.$.6.J D z.F.F.I.K.H.T.q z > z.c.z.s.s.s.f.0.+.f + t.^ # ",
"-.t ] 1.$.4.$.P r G ..4.x 1.b w   l.F.H.K.F.F.F.@.* x J b %X%X%X%X%X%Xz c b % E F.H.F.F.F.l.9.  + ' c.j.s.s.s.s.a.$.z $ '.].E.@X",
"j.{.W t K 4.b z {.P.B.x z J T ].U.$ #.f.0.H.l.$.c %X%X%X%X%X%X%X%X%X%X%X%X%X%Xz P 6.F.I.6.[ + R.{.I 9.c.c.w.c.f.6.z @ +X+Xl.0.f.",
"s.0.$.J 5 t y f.f.j.c.z.g r (.q.T.p.: %.3.4.P %X%X%X%X%X%X%X%X%X%X%X%X%X%X%X%X%X%Xb $.3.K * p.[.w.s.H #.0.6.6.4.J O @Xl.T.j.f.s.",
"j.f.1.$.z R.7 4.h.c.z.h.G (.F.g.q.5.K 0 l %X%X%X%X%X%X%X%X%X%X%X%X%X%X%X%X%X%X%X%X%X%X` q _ s.s.s.w.w.j #.4.P l S &.^.z.c.c.l.z.",
"f.j.6.%.f j.Y.N 1.1.1.o.f.(.q.q.q.g.g.%X%X%X%X%X%X%X%X%X%X%X%X%X%X%X%X%X%X%X%X%X%X%X%X%X%XN.z.z.l.z.f.o.f c y >.@Xy.Y.z.s.j.l.c.",
"j.s.0.1.j f.s.j.C ] L f $.q.q.q.F.q.5.%X%X%X%X%X%X%X%X%X%X%X%X%X%X%X%X%X%X%X%X%X%X%X%X%X%X1.w.e.%.6.h.1.q # M.oXQ.V.Z.s.w.f.h.l.",
"c.c.6.1.j f.s.w.f.N $ t ` $.5.#.#.[ %X%X%X%X%X%X%X%X%X%X%X%X%X%X%X%X%X%X%X%X%X%X%X%X%X%X%X%X%.f.1.4.4.$.t   |.Q.K.l. Xj.h.f.c.c.",
"z.6.:.A s w.w.w.s.A =.B $ A %.$.z %X%X%X%X%X%X%X%X%X%X%X%X%X%X%X%X%X%X%X%X%X%X%X%X%X%X%X%X%X%X@.9.b x # M O.Z.c.c.c.! l.h.w.z.c.",
"l.6.3.l * o.1.0.4.k _.`._.3 1 z %X%X%X%X%X%X%X%X%X%X%X%X%X%X%X%X%X%X%X%X%X%X%X%X%X%X%X%X%X%X%X%Xz 1 6 `.P.Y.W W.W.W.y 9.x.$.%.s.",
"4.:.H  .A.S u +.` A.l.N.z.Z.p.%X%X%X%X%X%X%X%X%X%X%X%X%X%X%X%X%X%X%X%X%X%X%X%X%X%X%X%X%X%X%X%X%X%XV.[.Y.f.f.2.c.W.K.h ` 9.9.%.%.",
"J y j.m.5.5.5.L + T.z.l.z.l.c.%X%X%X%X%X%X%X%X%X%X%X%X%X%X%X%X%X%X%X%X%X%X%X%X%X%X%X%X%X%X%X%X%X%XC.z.s.f.f.w.[ K.H.k J %.4.9.+.",
"p (.q.g.g.q.g.r.C c.c.c.h.w.$.%X%X%X%X%X%X%X%X%X%X%X%X%X%X%X%X%X%X%X%X%X%X%X%X%X%X%X%X%X%X%X%X%X%Xh.f.f.l.s.$.0 h.K.b H $.b z z ",
"m.5.q.5.7.7.5.#.o.a.s.f.h.%.%X%X%X%X%X%X%X%X%X%X%X%X%X%X%X%X%X%X%X%X%X%X%X%X%X%X%X%X%X%X%X%X%X%X%X%Xh.c.z.a.$.d J h.E f $.j d ) ",
"$.g.g.1.%.%.#.y [ #.w.6.1.b %X%X%X%X%X%X%X%X%X%X%X%X%X%X%X%X%X%X%X%X%X%X%X%X%X%X%X%X%X%X%X%X%X%X%X%X+.z.s.a.$.l q $.+.1 z i. X^.",
"E 9.$.K K b z O < y x ' K z %X%X%X%X%X%X%X%X%X%X%X%X%X%X%X%X%X%X%X%X%X%X%X%X%X%X%X%X%X%X%X%X%X%X%X%Xz ! @.' f < : ` q W ^.L.z.w.",
"y P t 1 r S { = B.=.B - + %X%X%X%X%X%X%X%X%X%X%X%X%X%X%X%X%X%X%X%X%X%X%X%X%X%X%X%X%X%X%X%X%X%X%X%X%X%X+ - M <.m.& M ^.c.c.L.c.h.",
"a `.P.Z.C.l.c.>.Z.Y.C.~.~.%X%X%X%X%X%X%X%X%X%X%X%X%X%X%X%X%X%X%X%X%X%X%X%X%X%X%X%X%X%X%X%X%X%X%X%X%X%XL.U.L.k.G.~ T.L.h.c.c.c.0.",
"M.C.C.l.z.f.s.y.w.e.l.f.w.%X%X%X%X%X%X%X%X%X%X%X%X%X%X%X%X%X%X%X%X%X%X%X%X%X%X%X%X%X%X%X%X%X%X%X%X%X%Xq.q.r.g.g.@.0.h.z.h.f.f.1.",
"+.l.z.c.C.c.6.8.h.f.s.w.w.%X%X%X%X%X%X%X%X%X%X%X%X%X%X%X%X%X%X%X%X%X%X%X%X%X%X%X%X%X%X%X%X%X%X%X%X%X%Xg.g.g.g.q.} 0.w.w.w.h.w.K ",
"~ 4.s.c.c.w.! ! w.f.f.f.$.%X%X%X%X%X%X%X%X%X%X%X%X%X%X%X%X%X%X%X%X%X%X%X%X%X%X%X%X%X%X%X%X%X%X%X%X%X%Xg.g.g.g.6.b :.0.6.l.j.$.f ",
"t K K o.o.K j t 7.h.h.$.P %X%X%X%X%X%X%X%X%X%X%X%X%X%X%X%X%X%X%X%X%X%X%X%X%X%X%X%X%X%X%X%X%X%X%X%X%X%X4.q.5.$.4.q f [ @.[ 4.#.i ",
"6 >.>.=.O.~ I 1 $.o.' ` z %X%X%X%X%X%X%X%X%X%X%X%X%X%X%X%X%X%X%X%X%X%X%X%X%X%X%X%X%X%X%X%X%X%X%X%X%X%XJ +.$.$.@.9 T.A.>.N w t > ",
"S.H.[.^.N.w.w.p i t * + & %X%X%X%X%X%X%X%X%X%X%X%X%X%X%X%X%X%X%X%X%X%X%X%X%X%X%X%X%X%X%X%X%X%X%X%X%X%X= o * y d + 9.z.P.z.f.C.~ ",
"N.c.c.w.f.c.w.L M i.Y.^.^.[.%X%X%X%X%X%X%X%X%X%X%X%X%X%X%X%X%X%X%X%X%X%X%X%X%X%X%X%X%X%X%X%X%X%X%X%X}.[.].^.v.S . 3 Z s.z.z.z.$.",
"@.f.s.l.f.w.9.o.}.P.[.C.c.T.%X%X%X%X%X%X%X%X%X%X%X%X%X%X%X%X%X%X%X%X%X%X%X%X%X%X%X%X%X%X%X%X%X%X%X%XH.P.T.H.H.J.y.P.d.4 j 4.1.} ",
"J 4.s.s.w.$.#.z V.c.c.c.c.l.%X%X%X%X%X%X%X%X%X%X%X%X%X%X%X%X%X%X%X%X%X%X%X%X%X%X%X%X%X%X%X%X%X%X%X%XH./.F.F.F.0.C.Z.h.h.9.$ u i ",
"y $.1.2.4.%.K y g l.c.c.c.h.4.%X%X%X%X%X%X%X%X%X%X%X%X%X%X%X%X%X%X%X%X%X%X%X%X%X%X%X%X%X%X%X%X%X%X9.I.Q.I.I.k.( x.f.s.s.o.M R.U ",
"o.l @.P c t S ^.X.0.z.z.l.9.J %X%X%X%X%X%X%X%X%X%X%X%X%X%X%X%X%X%X%X%X%X%X%X%X%X%X%X%X%X%X%X%X%X%X%.W.W.W.W.6.#.l.l.f.L )  X`.P.",
"w.$.q 0 | |.(.G.g.E 0.z.9.+.y %X%X%X%X%X%X%X%X%X%X%X%X%X%X%X%X%X%X%X%X%X%X%X%X%X%X%X%X%X%X%X%X%X%Xi o.h.J.s.x w.x.$.x y. XC.c.f.",
"l.6.@.4.5.q.q.7.7.A ! ` z + ( P.%X%X%X%X%X%X%X%X%X%X%X%X%X%X%X%X%X%X%X%X%X%X%X%X%X%X%X%X%X%X%X%X[._ @ P 6.@.* %.! y S. XP.c.s.f.",
"c.6.P %.6.q.g.g.g.4.0 ; 8 _.z.h.Z.%X%X%X%X%X%X%X%X%X%X%X%X%X%X%X%X%X%X%X%X%X%X%X%X%X%X%X%X%X%X[.f.f.Z.7 * q # [ t [. X XC.c.f.l.",
"6.$.z Q 4.6.g.g.g.4.$ y.P.C.c.z.z.c.%X%X%X%X%X%X%X%X%X%X%X%X%X%X%X%X%X%X%X%X%X%X%X%X%X%X%X%X[.l.l.c.f.f.k ) =.   XC.c.c.l.l.f.w.",
"$.@.l X 0 e u f z f i ! f.f.f.f.s.z.+.%X%X%X%X%X%X%X%X%X%X%X%X%X%X%X%X%X%X%X%X%X%X%X%X%X%XY.l.z.s.z.c.9.L C.^.~.Y.Y.s.z.z.h.l.4.",
"3.A f }.}.}.}.[.E.V.v.a %.f.w.w.s.0.z %X%X%X%X%X%X%X%X%X%X%X%X%X%X%X%X%X%X%X%X%X%X%X%X%X%X+.f.f.6.0.6.' P.f.z.l.A.~.w.s.f.h.l.%.",
"A d (.E.F.J.I./.oX}.P.^.~ P j.6.6.` 0 >.[.%X%X%X%X%X%X%X%X%X%X%X%X%X%X%X%X%X%X%X%X%X%XU.| 0 @.$.#.%.o.! z.f.s.f.f.M.s.%.f.f.w.$.",
"y q.!.H.F.z.F.F.H.W.W.W.W.f J ] b y M !.!.`.^.%X%X%X%X%X%X%X%X%X%X%X%X%X%X%X%X%X%XU.q.5.a.e y $.%.z $ t [ f.H.f.H.z.@.K $.4.$.[ ",
": 4.z.z.z.F.F.F.J.I.I.F.F.#.0 z j $ T.j.j.C.f.Z.R.%X%X%X%X%X%X%X%X%X%X%X%X%X%X(.}.g.5.q.5.4.o d v ~ (.R.r ` f.z.l.s.f.{ z #.l y ",
"u.d F.K.W.W.W.H.F.F.F.F.f.4.z X   E s.s.s.j.f.z.f.a `.`.`.%X%X%X%X%X%X X[.[.a g.5.5.5.q.a.q.b   <.z.g.e.G.o 9 [ 4.s.f.w.C z i W ",
"U.B.f l.K.W.Q.W.7.z.K.W.7.] 9 i.>.P 4.6.4.s.h.w.D V.F.z.T.H.H.d.y.N.~.z.j.h.8.Z $.5.5.5.5.$.f p.G.q.q.e.q.d.oXm f $.#.#.K . M.M.",
"Y.^.B.s @.6.J.0.6.6.6.6.o.u ) Z.^.A.t A %.9.w.$.X H.H.H.K.K.W.0.b.z.j.s.f.f.4.X $.q.6.3.! q 6.a.5.5.q.5.5.H.P.].A.4 J P q B.f.8.",
"S.s.~.B.u [ 9.9.#.6.6.P c N a h.h.^.`.I b ` o.z w f.H.I.K.F.x.~ ' j.l.z.z.c.1.* H ` +.f - G 6.f.q.q.q.q.' H.K.F.c.W.~ + n.`.s.a.",
"A.s.l.^.d.i b %.c b z j N  X!.G f.l.C.Z.^.2.j @ b 6.6.7.H.c.1.j ] z.z.s.9.f.$.i $ f ,.E.Y.g @.g.r.5.5.3.D H.I.K.I.J.J.N C.j.j.1.",
"R.l.l.^.{.b.y c z z u p {.c._.B.$.s.f.z.l.l.T.p.D z b #.9.7.4.y d %.@.$.} P f % = ^.^.H.h.j.0 0.r.q.4.$.y 6.J.K.c.H.H.W f.j.z.@.",
"~.l.h.z.h.h.@.Y Y.`.{. X`.c.c.c.R $.f.w.f.l.h.l.c.f.1.0 $ 5 t + + t h ( d._.R.R.2 z.j.z.z.j.o.J %.4.1.b z $.%.%.f.F.4.g h.l.c.+.",
"M.w.s.s.f.l.c.~ 0.l.^.~.C.z.z.z.z.g 9.l.c.f.l.c.c.f.+.w OX$Xt.y. X[.^.^.l.z.Z.s.1.@.j.f.f.h.0.p P $.K = 3 1 i b +.4.[ k s.f.h.K ",
"%.w.w.w.f.s.l.6.! #.9.s.f.w.s.c.z.f.w +.h.c.s.f.s.6.(  XC.Y.^.{.U C.z.c.l.l.s.s.j.; 9.w.h.s.s.[ 9 z g C.^.L.Z.&.p y z > ' 9.6.j ",
"$.2.z.h.f.h.w.%.%.y @.6.f.z.w.w.z.9.4.y +.6.6.6.K D.L.l.s.c.c.c.z.L ~ 6.s.w.j.s.w.! i 9.s.f.w.o.0 U c.h.f.f.h.h.Z.^.~.>.p q z y ",
"` 4.x.c.c.c.x.f.%.+.t z $.f.f.j.w.$.6.d z @.+.R @Xz.s.s.f.f.f.w.e.$.P t 9.j.s.w.e.! * o.$.$.$.z >.Z.f.f.w.j.f.c.c.z.C.Z.Z.P.1.; ",
"A 4.w.4.4.7.r.w.%.#.c t c #.f.l.f.$.#.P 1 z d.@XOXs.s.s.f.f.f.f.9.9.c t 4.s.f.z.x.1.i j $.b t $.s.w.0.4.$.%.0.f.s.z.c.c.c.c.4.x ",
"l J J o.%.6.4.] P o.K c t b %.#.$.$.$.b j O +Xf.w.f.j.s.f.f.f.w.h.1.] 1 4.4.6.4.6.6.A * z 9 @.4.+.+.$.` ] @.$.%.4.w.0.4.9.%.o.i ",
", u u u u u i u y y t t t + f z z z l i i q -.s.s.w.j.s.w.w.w.r.w.2.z > z z f f i l i 1 . 1 t t y y y u u i x j i f f f z x z 1 "
};
