/* XPM */
static char *result[] = {
/* columns rows colors chars-per-pixel */
"64 64 233 2 ",
"   c #001C2D",
".  c #00253B",
"X  c #002C45",
"o  c #002E49",
"O  c #033447",
"+  c #00324D",
"@  c #003554",
"#  c #013955",
"$  c #003A5C",
"%  c #003E63",
"&  c #05435A",
"*  c #004265",
"=  c #074C64",
"-  c #00436B",
";  c #034C6C",
":  c #0D556B",
">  c #004671",
",  c #004A75",
"<  c #004D7B",
"1  c #045374",
"2  c #0C5B74",
"3  c #02547C",
"4  c #05597C",
"5  c #0A5D7B",
"6  c #115C71",
"7  c #0E627D",
"8  c #156679",
"9  c #004F81",
"0  c #005284",
"q  c #045B83",
"w  c #095F81",
"e  c #00558B",
"r  c #015B8C",
"t  c #015C92",
"y  c #005D9A",
"u  c #066085",
"i  c #0B6383",
"p  c #05638D",
"a  c #09668B",
"s  c #0D6A8D",
"d  c #126A84",
"f  c #116E8B",
"g  c #13728C",
"h  c #1C7B8A",
"j  c #046492",
"k  c #086790",
"l  c #066995",
"z  c #0B6C92",
"x  c #02649B",
"c  c #056B9C",
"v  c #086F9A",
"b  c #0D7297",
"n  c #0C739C",
"m  c #127494",
"M  c #147896",
"N  c #137B9C",
"B  c #036BA2",
"V  c #0673A7",
"C  c #0A75A3",
"Z  c #0D79A4",
"A  c #0574AC",
"S  c #0C7CAB",
"D  c #117EA3",
"F  c #107FA8",
"G  c #077CB4",
"H  c #1E808E",
"J  c #1E8797",
"K  c #19839D",
"L  c #22828D",
"P  c #238A95",
"I  c #248A95",
"U  c #27949E",
"Y  c #0E81AE",
"T  c #1582A4",
"R  c #1886A5",
"E  c #1B8BA4",
"W  c #1384AB",
"Q  c #1689AD",
"!  c #198BAA",
"~  c #1F93A7",
"^  c #1D93AC",
"/  c #0D83B4",
"(  c #0B85BB",
")  c #0E89BB",
"_  c #158AB1",
"`  c #148BB3",
"'  c #128DBB",
"]  c #1A92B4",
"[  c #1D98B4",
"{  c #1692BC",
"}  c #1995BA",
"|  c #1C9ABC",
" . c #2395A2",
".. c #269AA5",
"X. c #2C9CA4",
"o. c #239DAA",
"O. c #309EA5",
"+. c #219EB1",
"@. c #1FA0BD",
"#. c #25A2AD",
"$. c #2BA4AD",
"%. c #32A5AC",
"&. c #34A9AE",
"*. c #23A3B3",
"=. c #26ABB5",
"-. c #2BAAB4",
";. c #2CABB4",
":. c #21A3BB",
">. c #24ABBC",
",. c #33ACB4",
"<. c #38AEB1",
"1. c #29B3BD",
"2. c #2CB3BC",
"3. c #36B3B8",
"4. c #34B4BB",
"5. c #3BB5BB",
"6. c #3DB9BD",
"7. c #41BBBE",
"8. c #0B8BC3",
"9. c #1494C2",
"0. c #1A9CC3",
"q. c #169BCA",
"w. c #1099D1",
"e. c #1EA4C5",
"r. c #1CA4CC",
"t. c #1BA9D4",
"y. c #1FB0DB",
"u. c #20A6C2",
"i. c #22ACC3",
"p. c #21ACCC",
"a. c #25B3C4",
"s. c #2DBCC4",
"d. c #24B4CB",
"f. c #27B9C9",
"g. c #2ABFCB",
"h. c #34BDC4",
"j. c #3BBDC3",
"k. c #20AED1",
"l. c #22B4D4",
"z. c #24BBD7",
"x. c #21B8E1",
"c. c #41BEC1",
"v. c #2CC3CC",
"b. c #2CC8CF",
"n. c #3DC0C6",
"m. c #34C4CB",
"M. c #34C7CE",
"N. c #3BC4CA",
"B. c #3CC9CE",
"V. c #29C5D3",
"C. c #2CCBD3",
"Z. c #27C3D9",
"A. c #29CADB",
"S. c #34CDD3",
"D. c #3BCDD2",
"F. c #2DD2DA",
"G. c #34D1D6",
"H. c #3CD0D6",
"J. c #34D4DA",
"K. c #3CD5DA",
"L. c #33D9DE",
"P. c #3DD9DE",
"I. c #25C3E2",
"U. c #27C9E5",
"Y. c #2CD8E6",
"T. c #35DDE2",
"R. c #3CDEE2",
"E. c #29D5F2",
"W. c #2FE0EA",
"Q. c #3CE1E5",
"!. c #38E6EB",
"~. c #2EE3F4",
"^. c #39EEF1",
"/. c #3CF2F5",
"(. c #38FAFC",
"). c #43C2C5",
"_. c #42C5C9",
"`. c #47C8C8",
"'. c #43C9CD",
"]. c #4ACBCD",
"[. c #44CDD1",
"{. c #4BCED1",
"}. c #44D1D6",
"|. c #4CD2D5",
" X c #44D5D9",
".X c #4CD6D9",
"XX c #44D9DD",
"oX c #4CDADD",
"OX c #52D4D5",
"+X c #54D8D8",
"@X c #54DADC",
"#X c #5BDDDC",
"$X c #5DE1DD",
"%X c #61E1DF",
"&X c #44DDE1",
"*X c #4CDEE1",
"=X c #53DEE0",
"-X c #5ADFE0",
";X c #43E1E5",
":X c #4CE2E5",
">X c #44E5E9",
",X c #4DE6E9",
"<X c #43EAED",
"1X c #4CEAEC",
"2X c #53E1E4",
"3X c #5CE2E3",
"4X c #53E6E9",
"5X c #5BE7E9",
"6X c #54EAEC",
"7X c #5BEAEC",
"8X c #43EEF1",
"9X c #4BEEF1",
"0X c #54EEF0",
"qX c #5BEFF0",
"wX c #48F4F6",
"eX c #56F4F6",
"rX c #5BFBFC",
"tX c #63E4E3",
"yX c #64E7E7",
"uX c #6AE9E6",
"iX c #64EBEC",
"pX c #6CECEB",
"aX c #72EEEC",
"sX c #76F1EF",
"dX c #79F2EE",
"fX c #65EFF0",
"gX c #67F5F6",
"hX c #75F3F3",
"jX c #7BF4F2",
"kX c #78FCFC",
"lX c #84F8F5",
"zX c #84FDFD",
"xX c #8AFDFB",
/* pixels */
"U.Y.Y.Y.L.L.J.G.G.H.H.D.D.B.B.B.'.N.4XgX4._..X}.'.j.j.2X:X*X*XXX X}.D.D.N.N.h.6.2.h X.J.C.C.V.d.e.e.| } Q W D n z Z / A V c j t ",
"E.Y.W.W.!.T.T.T.R.P. XK.K.}.}.[.'._.j.U .X4X=XoX|.'.).*X6X,X2X:XoXoX X}.D.D.N.2.X.L #. .H s.F.C.V.d.r.e.} { Q T Z n ) / A V B j ",
"~.~.^.!.!.!.Q.P.H.B.m.N.N.n.n._.).<.I O.j.qX7X2X*X|.{.{.0X7X6X6X:X:XoXXX XH.4.$.U ..;.-.-.#.J J V.Z.z.t.r.| { ` Y Z 8.) G A B x ",
"Y.F.b.v.v.v.M.B.B.B.B.B.[.[.[.[.%.O.5.j.6.c.qX7X2X@X.X{.gXqXqXqX6X4X:X*XXX5.4.,.I 4.h.2.;.;.=.*.~ h ^ z.y.t.q.{ ` Y ' 8.8.G A A ",
">.C.C.S.S.S.S.D.K.H.H.|. X X|.X.&.c.c.c.).).).iXiX3X#X+XgXgXgXeXqXqX6X*Xn.j.5.4.X.N.N.h.h.s.1.1.=.*.[ K g e.t.r.9.' / w.8.( G x ",
"J 1.J.L.J.P.P.XXXXXXXXoXoX|.%.5.'.].{.{.{.].{.{.5XiX5X-XgXgXgXrXgXqX2X'.).n.j.4.4.D.S.m.m.s.s.s.a.>.:.*.[ Q g m q.q.' w.w.8.j e ",
"o.v.2.T.R.Q.&X&X&X:X:X:Xn.&.).{.{.OXOXOXOXOX+XOXOX-XpXyX5XkXkXgXgX2X{.[.[.).j.&.D. XK.H.S.M.M.v.v.f.1.e.@.| ] Q N i N w./ v j p ",
"=.1.Q.G.Q.<X<X<X1X1X1X5.6.|.@X@X@X-X-X#X-X-X#X#X#X#X-XfXiXkXkXkX-XoXOX{.[.[.).3.*X&XR.R.K.K.J.C.C.v.f.d.e.e.| { T s 4 2 4 1 4 r ",
"=.o./.wX<X<XwX9X9X0X<._.@X2X3X3X3X3XyXyXyXyXtXuXuXuXtXtXpXzXkXtX-X-X+X.X{.{.[.'.1X1X>X&X&XR.T.L.J.F.V.d.+.K m g d 7 5 n Z v j q ",
"#.8 Q.m.4.;XwXeX,X3.|.4X6X7X7X7XiXiXiXpXpXpXaXaXpXpXuXuXtXaXuXuX3X2X=X@X.X|.c.*XeX9X9X8X<X!.R.M.1.#.o.~ E K N m g s i Y S n l p ",
"6 L ..wX&XN.X.I &.'..X.X.X+X+X+X@X#X#X#X#X#X#X#X#X+X+X+XOX<.7.7.7.].#X=X@X.Xc.eXrXeX>XD.h.h.h.2.;.>.*.+.o.! R K N m s ` S C v l ",
"J U  .<X<XH.j.,.&.oXoXoX@X@X@X#X#X#X$X%X-XtXtX%X%X%X$X$X{.].OXOX#X{.c.<.O.&.c.oX X X}.[.D.m.m.h.s.1.1.>.+.+.] ! T N N ' / S V c ",
"..#.#.%.wX;X[.4.,.6.*X-X-X-X3X-X3XtXtXtXuXuXuXuXuXtXtX%X`.#X#X+XOX-X#X{.].c.U c.N. XXXK.H.H.S.M.M.v.s.a.i.:.| } Q T { 8.` G Z c ",
"$.$.$.$.>X9X Xn.6.5.].2X3X5X3XyXyXuXuXpXuXaXuXaXaXaXuX+XOX%X$X#XOXOX-XtX-X{.%.j.c.j.j.j.H.P.K.J.G.C.C.v.d.i.e.| } Q q.8.) / S q ",
";.2.;.,.4.wX;X[.'.j.j.@X7XiXiXiXiXpXpXsXaXdXdXdXdXaXdXOXuXtX%X#X#XOXOX#XfX7X7.{.j.'.N.j.j.4.h.D.L.F.F.C.Z.l.p.r.0.{ t.w.8.S p u ",
"2.2.2.4.4.*X9XoX}.{.`.c.5XiXfXpXpXaXsXdXdXdXdXlXlXlX$X$XpXuXuX%X#X#XOXOX{.gX_.2X.XN.[.B.N.h.h.a.2.1.C.Y.A.Z.z.y.r.q.t.r.Y n l p ",
"m.s.h.h.j.n.eX1X:XoX|.].`.fXfXhXaXhXhXjXjXlXlXlXlXlX$XaXaXuXuX%X#X#XOXOX{.].{.rX6XXXB.XX}.D.M.m.m.2.1.>.>.z.I.x.y.t.y./ S Z v l ",
"b.m.M.m.N.N.oX9X6X2X@XoX|.].gXhXhXhXjXlXlXlXlXxXxXtXuXdXaXaXuXtX%X#X#X#X].5.%.+XrXeX:X XXXP.H.G.b.b.v.s.i.u.[ | t.t.` W n k 4 ; ",
"S.G.S.B.B.B.H.rXrX0X6X2X@X+X+XkXkXkXjXkXlXlXxXxXxX#XjXsXaXuXuXuX%X%XOX).c.7.3.].`.:XeX<XR.>XQ.P.L.J.F.v.f.d.e.| : O 2 s a i u q ",
"....X.$.;.4.n.}.rXgXeX7X3X3X@X-XkXkXzXzXxXxXxXxX#XaXjXsXaXaXuXuX%X{.].c.c.7.j.[.'._.n.1XwX>X<X^.!.W.Y.F.Z.Z.M : 2 : m i Z n v j ",
";.;.;.,.,.,.,.6.I ).gXgXfX5X3X$XiXzXzXzXzXxXxXzX%XjXsXsXaXaXtX#XOX{.].`.).7.c.|.}.B.n.j.n.8X/./.^.^.^.Y.a.7 g M g 7 m m a u C c ",
"v.g.h.m.m.j.h.j.,.).n.).gXgXiX3X3XhXkXzXxXxXxX#XaXhXsXsXaX%X-X#X+XOX{.].`.5.{..X}.'.N.j.h.4.m./.(.(.W.J J [ ^ T m d s n z i 1 l ",
"J.G.G.S.D.D.N.6.&.).oXoX|.`.iXfXiXtXkXzXzXxXjX$XhXjXsXpXtX%XtX-X#XOX{.].`.5..XoX X[.B.N.6.2.2.;.G.=.#.f.z.e.+.Q N m i Z b a q 1 ",
"1.!.Q.Q.Q.P.N.6.j.j.).n.|.2X7XOX5XyXyXzXxXxX+XpXhXpXpXyXtXtX-X-X#X+XOX{.'.5.oXoX X}.D.B.m.h.2.;.h J W.F.Z.r.e.] T m 7 S n k p 4 ",
"*.#.!.8X8XD.K.K. XXX.X.X@X@XoX$XyX2XtXyXzXjX#XaXaXfXpXyXtXtX-X-X+X+X|.|.{.j.=X*XXX XH.B.m.m.2.$.8 U o.E.U.l.e.{ Q N i S Z v p q ",
"1.-.#.m.wX8X1X1X9X0X0X0XqX0XqXqXfXfXiX3X#X%XaXgXfXaXfXiXiXtX-X-X-X@X.X|.{.j.*X*XXXXX}.D.m.2.1.$.H o.~ J U.z.t.0.` F s W Z v j r ",
"1.1.-.#.L K.P.P.XXXXXX.X.X@X@XoX@X+X@X@X&.).c.yXfXaXpXiXiX5X5X-X-X=X.X.X|.'.9X*X;XXXK.B.h.4.2.h U ~ o.E T x.y.r.{ W n S S C l p ",
"v.v.2.P h R.P.XXXXXXXXoXXXoXoX.X@X@X+X5.<.`.{.].c.{.fXfXiXiX5X2X-X=X=X.X}. X0X1X;X&XB.m.m.2.1.H *.#.^ E R K t.t.9.` Z Z / V c j ",
"A.b.s.8 I Q.R.P.&XXX&X*XoX*XoX$X*X@X7.%.c.).OX|.{.{.).c.-XiX7X7X4X=X*X*X'.*X9X1X;XD.B.m.v.s.U ~ =.+.[ ~ R K M { q.' Y b ( V B x ",
"Y.F.H J U J.Q.;X&XQ.&X:X&X:X*X*X*Xc.%.c.).c.oX@X+XOX|.{.].6.'.7X6X,X=X*Xj.1XwX&XH.G.S.M.s.s.H *.>.+.^ ^ Q K N b Y { / a ( G V c ",
"Y.V.J #...1.!.>X!.>X&X&X:X:X*X:X'.O.6.c.c.c.-X=X=X=X@X*X|.{.[.c.5.*X*X*Xj.9X&XR.K.H.S.M.v.2. .1.:.*.[ ^ Q T N m s n ( k 8.G c 0 ",
"~.H *.=.#.U !.!.<X>X<X;X;X;X:X}.X.5.c.j.c.c.|.6X4X2X=X*X*XoX.X X}.c.,.j.h.&X&X&XK.J.S.S.v.P *.1.i.@.[ ] Q T N m b a k c ( c j r ",
">.^ f.=.#.~ ^.^.!.<X<X<X>X1X&XU 5.j.6.j.j.j.n.eX0X0X6X6X,X*X:X:X}.%.I I h &X&XR.L.J.S.S.v.J f.a.u.:.| { Q T Z n z a u ; V B l r ",
"2 z.f.a.=.o.L.^.8X^.^.<X<X>XI <.h.j.n.j.j.j.6.rXrXeXeX9X,Xj.%.U $.,.,.O.O.&XR.R.L.J.G.C.=.*.f.d.e.:.| ` Q T N n s 5 1 O # q x t ",
"g J z.a.1.#.1.^././.8X8X<XP ,.h.j.j.j.j.j.j.6.eXrXXX<.&.3.6.N.N.j.j.h.P $.$.R.T.T.J.F.C.J f.f.d.i.0.| { Q W N a i 5 1 + & * * j ",
"T K K d.1.*.o.(.(./././.I -.h.h.h.h.h.j.h.5.&.X.h.B. XK. XK.B.B.h.h.h.h ,.$.a.!.T.L.F.v.o.z.d.k.r.0.| ` T z s i 4 4 & & * $ * $ ",
"] ] ! ~ i.>.+.(.(.(.(.P $.s.m.h.m.h.4.,.%.%.$.U h.;X;X&XP.H.H.B.m.h.$...;.-.o.G.T.L.F.~ d.z.l.k.r.0._ D m b a a u 4 # ; * $ # * ",
"| | | | +.u.*.Y.(.(.U #.s.v.s.h.,.2.,.;.;.$.$.X.U ;XQ.&XP.K.H.S.M.m.P $.>.-.#.o.Y.Y.A.~ Z.z.l.t.} ` T D n b v a u 1 & ; = * $ % ",
"r.t.t.e.e.a.:.1.(.~ ~ v.s.s.s.2.2.2.2.2.;.,.%.#.U $.!.>XR.P.J.G.S.m.P 1.;.-.#.o.+.Y.i.u.I.l.0.| ] _ W D Z n k a u & , ; - * $ # ",
"T ` } e.r.k.d.e.*.~ v.v.v.v.m.v.m.h.2.2.2.2.;.$.#.U K.!.Q.T.J.F.C.1...a.1.=.+.o. .f.E k.t.r.0.{ { Q W Z n n k p r * 3 , ; * % $ ",
"` _ R T K M g 8 8 f.A.V.C.V.v.v.v.m.s.1.1.1.2.-.#.X.U !.!.T.T.J.G.J >.1.>.=.+.^ ~ h M l.t.r.0.{ { _ Y S n n v j 1 ; 3 1 > - * % ",
"' ' ` ` Q Q E g g K ^ A.A.C.C.C.b.v.v.v.v.s.1.=.*.o. .v.!.W.Y.L.J.J s.a.>.:.[ ~ g d 8 R T 0.0.9.' / Y S C v l p * q 0 < > - - - ",
"' ' ' ` Q ! R 7 K R E E u.A.A.C.V.V.V.b.v.v.v.1.=.*.o. .!.W.W.Y.V.~ f.a.>.:.~ m g g d T T N m T ` ` / Z V v l r 1 r 0 < , , > - ",
") ' ' ' ` Q T 7 R R R R R E z.U.A.A.Z.V.V.f.v.s.1.*.o.E +.W.W.Y.E >.d.e.:.R N N m g f i W D n z a p Z V V c x ; r r 0 < < , > > ",
"/ ) ) ' ` Q N s R Q ! R E E E ^ Z.U.A.Z.Z.Z.V.d.i.>.+.o.E U.E.Y.K p.r.>.! R T K M m f s W F Z v z a q 4 p c x , y t e 0 9 9 < > ",
"u ) ) ` ` / 7 N W W Q Q Q Q Q ! ! | U.U.I.I.Z.l.d.u.:.[ ~ R E.I.^ l.| ] ] Q T N N M m f s Y Z Z v p u q 3 , + 3 y e e e 9 9 9 < ",
"4 ( ( / ` Y 2 Y W W W W Q Q R ! Q R R t.I.U.I.x.l.p.u.| ^ ! p.! | 0.} { ` Q Q T N N b s a / S C c l p q 3 o o % @ % e e e 0 9 9 ",
"4 l ( ( ( S i Y W W W Q W Q Q Q Q Q Q T W } } ] ] ] ] Q R T N h q.e.0.{ { Q Q Y F n n v s k / V V x j q o @ $ % % % % @ % e e 0 ",
"4 3 ( ( / u v Y W Y W W Y _ Q Q Q T M g 7 7 0.} ! T M g d 2 : & 6 7 N { { ' Y Y S Z n v z w G A V x 3 # % % % % - - % > % % @ % ",
"q q V G G 1 C S S S Y W Y Y W N s g s g & g b r.{ { Y K m f d & 7 b s 7 : = 7 N S Z C v c y B G V ; * - > > % % , , , > , > > > ",
"0 q 0 G G q A S S S G Y Z m k z s b s s & N m M q.} _ T N b s & 7 7 b l k a u 4 = & = w l x e A * ; < , > % % % < 9 < < < > < > ",
"0 q r A j l A V S S v k z z z z s b s 2 & N b s T 8.' Y Z N s = 7 4 7 n z k u u q 4 1 ; * # @ @ 3 0 0 < < > < > > 9 9 0 9 9 9 9 ",
"0 q e r , c A c j j l l z k k z s l a & = n b a u / ) / Y n v = u 4 4 7 v l k p q 4 4 , < % @ $ $ # 9 9 9 9 , > % e e e e e 0 9 ",
"% # % < , r r j p j p j j j l k k k k & 1 n z a i 4 ) ) Y Z v = a u 4 1 q c l j r r 0 3 9 % $ % - - % $ % 9 9 9 9 e y y t t t e ",
"- % % . O r t t j j j j j j j p p p 1 * = v l a u q 4 ( G V v 1 p r q 1 , q x x p r q 0 9 @ % > - > > % % % $ > 0 9 y y y y % $ ",
", + @   $ $ < r t r r t p j p j p p # ; = c l p u 4 1 1 ( A V 1 j p q 4 1 ; 0 x j t r 0 % % < 9 , , , , < > > > % $ 9 % % % % 9 ",
"o $ % . % % % % e r t t r t r j t r $ ; * c j r q 4 1 1 0 A V 3 x p r 0 1 , ; 0 y y e e $ 9 9 9 9 9 9 9 9 % @ . . X o 9 0 9 0 9 ",
"% % X o % > % % % < e r r r r r r - * = & x p r q 3 , , ; r A 0 j j r 0 < , - - 9 y y % < 9 9 9 9 % @ o o @ @ % $ $ $ e e 0 9 0 ",
"% % + @ > > > % % % % e e e e r e @ > , * j t r 0 3 , ; - * y e y t t 0 < < , - % e y % 9 > @ @ $ $ % % % % % % % % % % e e e e ",
"> $ $ % , % % > - % % $ 9 e e e 0 % % % $ t r e 3 < , - - $ $ e y y t e 0 , - % @ @   @ % % < > < % > > > > < % % % % % e e e e ",
"> + @ % > > > % > % - % % % t e % % % % $ t e 0 9 < , - % % @ . % % % % - > > > < o . > % $ % < 9 < < > < > < % < % < % % y e e ",
"% % @ < > > > > > - - - * % $ 0 % % % % $ y t e 0 < , , @ X o + 9 e e 0 9 < < < % . @ % % < % % $ $ % 9 9 9 9 < 9 < 9 < % y e y ",
"@ % $ < , < , > > > - % - % % . % > % % % y y e 0 9 % o @ % % @ , e 0 9 9 9 9 < . @ @ % < < % < < % % % % % < e 9 e 9 e 9 e e 9 ",
"% % % 9 < < < , > > > > % X X X % % % % % y y t % $ % % % % % % > e e e e 9 9 $ o @ @ % < < < > < > < < % % % % @ % e e e % e $ "
};
