/* XPM */
static char *_4169_e7aeb4c4a809ae0912ff0535855bb53fb7d714d0b191dc63cefd0a6b09c3e015[] = {
/* columns rows colors chars-per-pixel */
"64 64 8 1 ",
"  c black",
". c #000104",
"X c #000206",
"o c #061C4F",
"O c #0A2C7B",
"+ c #0D3392",
"@ c #123BAF",
"# c #1949DE",
/* pixels */
"                                                                ",
"                                                                ",
"                                                                ",
"                                                                ",
"                                                                ",
"                                                                ",
"                                                                ",
"                                                                ",
"                                                                ",
"                                                                ",
"                                                                ",
"                                                                ",
"               ..                              ..               ",
"             XoOOoX                          XoOOoX             ",
"             o+@@+o                          o+@@+o             ",
"            .O@##@O.                        .O@##@O.            ",
"            .O@##@O.                        .O@##@O.            ",
"             o+@@+o                          o+@@+o             ",
"             XoOOoX                          XoOOoX             ",
"               ..                              ..               ",
"                                                                ",
"                                                                ",
"                                                                ",
"                                                                ",
"                                                                ",
"                                                                ",
"                                                                ",
"                                                                ",
"                                                                ",
"                                                                ",
"                                                                ",
"                                                                ",
"                                                                ",
"                                                                ",
"                                                                ",
"                                                                ",
"                                                                ",
"                                                                ",
"                                                                ",
"                                                                ",
"                                                                ",
"                                                                ",
"                                                                ",
"                                                                ",
"               ..                              ..               ",
"             XoOOoX                          XoOOoX             ",
"             o+@@+o                          o+@@+o             ",
"            .O@##@O.                        .O@##@O.            ",
"            .O@##@O.                        .O@##@O.            ",
"             o+@@+o                          o+@@+o             ",
"             XoOOoX                          XoOOoX             ",
"               ..                              ..               ",
"                                                                ",
"                                                                ",
"                                                                ",
"                                                                ",
"                                                                ",
"                                                                ",
"                                                                ",
"                                                                ",
"                                                                ",
"                                                                ",
"                                                                ",
"                                                                "
};
