/* XPM */
static char *result[] = {
/* columns rows colors chars-per-pixel */
"64 64 35 1 ",
"  c #777777",
". c #777778",
"X c #7B7B7C",
"o c #818182",
"O c #8B8B8B",
"+ c #8F8F90",
"@ c #949494",
"# c #979798",
"$ c #9B9B9C",
"% c #9F9FA1",
"& c #A4A4A4",
"* c #A6A6A8",
"= c #ADADAE",
"- c #AEAEB0",
"; c #B3B2B3",
": c #B6B6B8",
"> c #BBBBBD",
", c #BFBFC0",
"< c #C3C3C4",
"1 c #C7C6C9",
"2 c #CCCCCD",
"3 c #CFCFD1",
"4 c #D3D3D4",
"5 c #D8D7D7",
"6 c #D6D6D8",
"7 c #DCDCDC",
"8 c #DEDEE0",
"9 c #E0DFE2",
"0 c #E2E1E3",
"q c #E6E6E9",
"w c #E8E7EC",
"e c #E9E9ED",
"r c #EEEEF1",
"t c #F0EFF1",
"y c #F1F0F3",
/* pixels */
"eeeqeeeeee1eeeeeeq:eeqeeer9eeeeee2eeeeeer;eeeeeer9eeeeee6qeeeeee",
"eee0eeeewe1eeeeeee:eeeeeer0eeeeee2eeeeeee:eeeeeer9eeeeee4eeeeeee",
"qqe0qqqqqq1qqqqqqq-qqqqeqr9qqqqqq3qqqqqqq;qqqqqqe7qqqqqq6qqqqqqq",
"9900706099e090>999088929908987999e888,998098920809997799e0703998",
"eeqeee0reeeeee=eeeeeee2eeeeeeqeeeeeee:qeeeeee1eeeeeeqeeeewee4eee",
"eeeeee0eeeeeee=eeeeeer2eeeeeeeeeeeeee;eeeeeer1eeeeeeqeeeeeee4eee",
"eeeeee0eqeeeee=eeeeeee2eeeeeeqeeqeeeq:eeeeeee1eqeeeeeqeeweee4eee",
"OOOOOO,OOOOOOO=OOOOOO@OOOOOOO,OOOOOOO-OOOOOO+OOOOOOO;OOOOOOO*XoX",
"eer0eeeeee1erewwee;eeeeeet0eeeeee2eqeeeee:eeeeeer0eeeeee4weeeeqe",
"eereeeeeww1eeqrwee;eeeeeey0eeeeee3qreeeee:eeeeeer9ewewew4eeeeeee",
"eer0eeeewe1ewwqwee;eeeeeet0eeeeqe3wwqeeee:eeeeeee0eeeqee4eeeeeee",
"--<---;;;;>-;-;;;;@;;-;--,=;;-;=;,-;;;-;;#;-=;;;,=;-;;;;<;-;;;-;",
"yyyyyyqyyyttyy>yttttyt5yyyyytetttryyy,yyytyyy4ttryyyrryryyyy6rrr",
"eeeeee0eeeeewe-eeeeeer2eeeeeeqeteeqee:eeeeeee1eeeeeeeeeeeeee4eeq",
"eeeeeeqeeeeeee-ereqrer2eeeeetqeeeqeee;qeeeeer1eeeeeeqeeeweee4eee",
"eqeeee0eqqeeqe=eqeqqqe2qeqeeqqqeeeeeq:qeqeqeq1eewwwwqeeqeqqe3qeq",
"<<<<<<7<<<><<<5<<<><<1<<<<<<<7<<<><<<5<<<:<<2<<<<,<<6<<<,<<<0666",
"eqrqeeqree2eeeeeee;eeeeeqt0ttqeee3eeeeeet:eeqeeqr0ereeee4eeeeeee",
"eer0eeeeee2eeeeqeq;eeeeeet0eqeeee3eeeeeqq:eeeeqtr8wweeww4eeeeeee",
"eer0eeeeee1eeeeeee;eeeeett0eeeeee2eeeeeet:eeeeeer8eeewer4eeeeeee",
"oo$XXXXXXX=XXXXXXoXXXXoXX$XXXXoXX=XoXXXXXoXXXXXX#XXXXoXX;XXXXXXX",
"eereer0rreeerr-eeeeeet3eeeeeteeeeteee:rreeett1teeeerqereeere4rrr",
"eeeeee0reeeeee=eeeeeee2eeeeeeqeeeeeee;eeeqeee2eeeeeeweeeeeee4eeq",
"eeeeee0eeeeeee=erereee2eeeeeqeeeeeeee;eeeeeee1eqeeeeqeeeeeee4eee",
"00000000000000=0900000199999000000900;0000080<000090000809003q0q",
"eqeqeqtqqe4qqqtqqq2eeeeeee0eqteqe5eeeeeee2eeeeeee0qetqee7eeqe000",
"eqr0eeeeee2qeeeeee;eeeeeet0eeeeee3eqeqeee:eeeeeqt9eeeeee4qeeeeee",
"eerqeeeeeq2eeeeeeq:eeeeeetqeeeeee2eeeeeee;teeqeer0eeeeqr4eeeeeee",
"eerqqeeeee2qeetqee;eeeeeet0eeeeee3eeeeeee:eeeeeet0eeeeee4eeeeeer",
"XX#XXXXXXX:XXXXXXXOXoXXXX#XXXXXXX>XXXXXXX+XXXXXX@XXXXXXX>XXXXXXX",
"eeeeee0eeeeetq=qeeeeet2eeeeeeeeeeeeee;eeeeeet2eeeeetqereeeee3eee",
"eeeerqqeeeeeqt=eeeeeee2eeeeeeeeeeeeee;eeeeeee<eeeeeqqeqeeeee4eee",
"eeeeee0eeeeeee-eeeeeee2eeeeeeeeeeeeee;eeeeeee1eeweeeeeeeeeee4qee",
">>>>>>4>>>>>>>%>,>>>>,*>>>>>>4>>>>>>>&>>>>>>,&>>>>>>2>>>>>>><111",
"yyyerytytt4ttyttrt<tyytttyettteyt5tttttyt1tttytyyqryyyyy7tytttry",
"eeeqeeeerw1eeeeeee:eeeeeet0eeeeee3eeeeeee:eeeeeer8eeeeee4eeeeeee",
"eeeqeeewqe1eeeeeeq;reqeeer0eeeeee2eeeeeee:weeewwe0eweeee5eeeeeee",
"eet0weeeee1eeewwqe:eeeeeet0eeeeee2eeeeeew:eeeeeey0eeeeee4qeqeqee",
";;,;:;=;;;6;:-#;;;>-:-*;;,;:;=;;;5:;-$-;->;:;*;;,;;;=;;;5;:;=;;;",
"eeeeee0eeeeewe-eeeeeee3eeeeqeeeeeeeee:eeeewee1weeeee0eeeeqeq4eee",
"eeeeee0eeewewr-eeewwre3qwwrwweeeeeeee;eeeeeee1eewwrwqrrweeee4eee",
"eeeeee0ewweeww;eeeqrwr3qweqwweeqeeeee;eeeeeer1eerwqeqqwweeee4qqe",
"XX  XX;X.X.X..%...X..o.....XX;X. X XX$XX..X.X..X....*XX..X.X*+++",
"qeeeeeeewr1erwwwrq:qrrwwrr0wreqre2eeeeeee:ereerwr0qrqrww4eeeeeqr",
"eeeqeeeeww1ewwweww:wewwwer0weeeee2eeeeeee:eeeeeer9rqeeer4erqqwwr",
"eeeeeeeeww1ewwwwww;weqewer0reeeee3eeeeeee:eeeeeer8wweeww4qqerqww",
"3261322233<3333233*3333345132222213222223*3223236133223332322333",
"yyyytyeyyyyytt1yytytrt8yyyyyyeyyyyyyy2yyyyyyy5yttytrrryyyyty8yrr",
"eeeeqe0eeeeeee=eeqqqwr1eeqwwqeeewwqqe;wwqeeer1wwwqwwqeeqqeeq4qeq",
"eeeeeeqeeeeeee=eeerqqr3erqrweeeerwwrw:wwrqeee1eewrwweeeeeeee4eqr",
"eeeeeeqeqeeeee=eeeeeqr2qqqqweqeqqweqr-qqqqeee1qeeewwqeeqeeee3wwr",
"$$$$$$2$$$#$$%>$$$#$%%%$%%$%%1$$%#$$%,%$%#$$%%$$$$%%,%$%$$$$,###",
"eeeqeeqeee1eeeeeee:eeeeeqr0reewrr1rerqrre:eerqrrr9eeeerq4erwqwwr",
"eer0eeeeee1eeeeeee;eeeeewr0weeweq3rqwqqwe:eeweqwr9eeeewq4qwwwrww",
"eeeqeeeeee2eeeeeqe-eeeqqwr0qewrqe2qqqrqqr;eqqwqqr8eeeqee4eqqqqwr",
"@+*$$$$$$$;#$$$$$$+$$$$$%-#%$##%$>#%#$%$$+$$$#%%=#$$$$$$>$%#%%#$",
"errerrqrrtetet:rrrerrr4rtyeeeerrrrrrr>rerrrrr3rrrrrrqwrretrr6rre",
"eeeewe0eeqeeee=eweeeee2eeeeeeqeweqwwq:eerwqwr<ewqeqeqrweeeqq4qee",
"eeeeewqeeeeeee=eeeeeee3eeeeeeeqwqwrwe;eewwrwq1weweeeqeeweeer3ree",
"qeeqeqqqqeqeee=qweeeee2eqeqeeqrweqqwe:qqwqqwe1wwwwqeeqwweqqe4qqe",
"088799q900;0080099=9999908599q888:8880998*8888989699q888,8880890",
"eeeqeeeeee1eeeeeee;eeeeeer0ewqrqr3ewwrqrr:rqrqrqr8qreerw6eewrwwr",
"eeeqqeeeee1eeeeeee:eeeeeer0rwrwqw3wrwwwww:wwwwqrr8eewwww6wwwwwwe",
"6673666666<6655566*6666669366666616666666-6666668366666636666648"
};
